%TF.GenerationSoftware,KiCad,Pcbnew,9.0.6*%
%TF.CreationDate,2025-11-26T20:47:25-03:00*%
%TF.ProjectId,Car_v1,4361725f-7631-42e6-9b69-6361645f7063,rev?*%
%TF.SameCoordinates,Original*%
%TF.FileFunction,Copper,L2,Bot*%
%TF.FilePolarity,Positive*%
%FSLAX46Y46*%
G04 Gerber Fmt 4.6, Leading zero omitted, Abs format (unit mm)*
G04 Created by KiCad (PCBNEW 9.0.6) date 2025-11-26 20:47:25*
%MOMM*%
%LPD*%
G01*
G04 APERTURE LIST*
G04 Aperture macros list*
%AMRoundRect*
0 Rectangle with rounded corners*
0 $1 Rounding radius*
0 $2 $3 $4 $5 $6 $7 $8 $9 X,Y pos of 4 corners*
0 Add a 4 corners polygon primitive as box body*
4,1,4,$2,$3,$4,$5,$6,$7,$8,$9,$2,$3,0*
0 Add four circle primitives for the rounded corners*
1,1,$1+$1,$2,$3*
1,1,$1+$1,$4,$5*
1,1,$1+$1,$6,$7*
1,1,$1+$1,$8,$9*
0 Add four rect primitives between the rounded corners*
20,1,$1+$1,$2,$3,$4,$5,0*
20,1,$1+$1,$4,$5,$6,$7,0*
20,1,$1+$1,$6,$7,$8,$9,0*
20,1,$1+$1,$8,$9,$2,$3,0*%
G04 Aperture macros list end*
%TA.AperFunction,ComponentPad*%
%ADD10C,1.320800*%
%TD*%
%TA.AperFunction,ComponentPad*%
%ADD11RoundRect,0.250000X-0.550000X-0.550000X0.550000X-0.550000X0.550000X0.550000X-0.550000X0.550000X0*%
%TD*%
%TA.AperFunction,ComponentPad*%
%ADD12C,1.600000*%
%TD*%
%TA.AperFunction,ComponentPad*%
%ADD13RoundRect,0.250000X0.550000X0.550000X-0.550000X0.550000X-0.550000X-0.550000X0.550000X-0.550000X0*%
%TD*%
%TA.AperFunction,ComponentPad*%
%ADD14C,1.840000*%
%TD*%
%TA.AperFunction,ComponentPad*%
%ADD15C,1.820000*%
%TD*%
%TA.AperFunction,ComponentPad*%
%ADD16C,2.000000*%
%TD*%
%TA.AperFunction,ViaPad*%
%ADD17C,3.300000*%
%TD*%
%TA.AperFunction,ViaPad*%
%ADD18C,1.800000*%
%TD*%
%TA.AperFunction,Conductor*%
%ADD19C,1.200000*%
%TD*%
G04 APERTURE END LIST*
D10*
%TO.P,LED4,A*%
%TO.N,Net-(LED4-PadA)*%
X105000000Y-114980000D03*
%TO.P,LED4,K*%
%TO.N,Earth*%
X105000000Y-117520000D03*
%TD*%
%TO.P,LED3,A*%
%TO.N,Net-(LED3-PadA)*%
X117500000Y-115000000D03*
%TO.P,LED3,K*%
%TO.N,Earth*%
X117500000Y-117540000D03*
%TD*%
%TO.P,LED1,A*%
%TO.N,Net-(LED1-PadA)*%
X137500000Y-114980000D03*
%TO.P,LED1,K*%
%TO.N,Earth*%
X137500000Y-117520000D03*
%TD*%
D11*
%TO.P,U1,1*%
%TO.N,Net-(R1-Pad2)*%
X111829875Y-85440125D03*
D12*
%TO.P,U1,2*%
%TO.N,GND_CAR*%
X111829875Y-87980125D03*
%TO.P,U1,3*%
%TO.N,Earth*%
X119449875Y-87980125D03*
%TO.P,U1,4*%
%TO.N,14*%
X119449875Y-85440125D03*
%TD*%
D11*
%TO.P,U2,1*%
%TO.N,Net-(R2-Pad2)*%
X112445000Y-72725000D03*
D12*
%TO.P,U2,2*%
%TO.N,GND_CAR*%
X112445000Y-75265000D03*
%TO.P,U2,3*%
%TO.N,Earth*%
X120065000Y-75265000D03*
%TO.P,U2,4*%
%TO.N,15*%
X120065000Y-72725000D03*
%TD*%
D13*
%TO.P,U4,1*%
%TO.N,Net-(R4-Pad2)*%
X119339875Y-95215125D03*
D12*
%TO.P,U4,2*%
%TO.N,Earth*%
X119339875Y-92675125D03*
%TO.P,U4,3*%
%TO.N,GND_CAR*%
X111719875Y-92675125D03*
%TO.P,U4,4*%
%TO.N,Sinal do servo*%
X111719875Y-95215125D03*
%TD*%
%TO.P,R5,1*%
%TO.N,14*%
X123400000Y-83000000D03*
%TO.P,R5,2*%
%TO.N,3V3*%
X136100000Y-83000000D03*
%TD*%
%TO.P,R1,1*%
%TO.N,Motor Rec*%
X94784875Y-85465125D03*
%TO.P,R1,2*%
%TO.N,Net-(R1-Pad2)*%
X107484875Y-85465125D03*
%TD*%
%TO.P,R10,1*%
%TO.N,Estado_3*%
X163350000Y-79000000D03*
%TO.P,R10,2*%
%TO.N,Net-(LED1-PadA)*%
X150650000Y-79000000D03*
%TD*%
D14*
%TO.P,J1,01,01*%
%TO.N,5V*%
X100862500Y-65763321D03*
%TO.P,J1,02,02*%
%TO.N,3V3*%
X103100250Y-65750000D03*
%TO.P,J1,03,03*%
%TO.N,Earth*%
X105362500Y-65763321D03*
%TO.P,J1,04,04*%
%TO.N,SCL*%
X108180250Y-65750000D03*
%TO.P,J1,05,05*%
%TO.N,SDA*%
X110720250Y-65750000D03*
%TO.P,J1,06,06*%
%TO.N,unconnected-(J1-Pad06)*%
X113260250Y-65750000D03*
%TO.P,J1,07,07*%
%TO.N,unconnected-(J1-Pad07)*%
X115800250Y-65750000D03*
%TO.P,J1,08,08*%
%TO.N,unconnected-(J1-Pad08)*%
X118340250Y-65750000D03*
%TD*%
D12*
%TO.P,R6,1*%
%TO.N,15*%
X123400000Y-72000000D03*
%TO.P,R6,2*%
%TO.N,3V3*%
X136100000Y-72000000D03*
%TD*%
%TO.P,R9,1*%
%TO.N,Estado_2*%
X163350000Y-85000000D03*
%TO.P,R9,2*%
%TO.N,Net-(LED2-PadA)*%
X150650000Y-85000000D03*
%TD*%
%TO.P,R11,1*%
%TO.N,Estado_1*%
X163250000Y-91250000D03*
%TO.P,R11,2*%
%TO.N,Net-(LED3-PadA)*%
X150550000Y-91250000D03*
%TD*%
D13*
%TO.P,U3,1*%
%TO.N,Net-(R3-Pad2)*%
X119339875Y-102740125D03*
D12*
%TO.P,U3,2*%
%TO.N,Earth*%
X119339875Y-100200125D03*
%TO.P,U3,3*%
%TO.N,GND_CAR*%
X111719875Y-100200125D03*
%TO.P,U3,4*%
%TO.N,Sinal do motor*%
X111719875Y-102740125D03*
%TD*%
%TO.P,R3,1*%
%TO.N,12*%
X136134875Y-102715125D03*
%TO.P,R3,2*%
%TO.N,Net-(R3-Pad2)*%
X123434875Y-102715125D03*
%TD*%
D10*
%TO.P,LED2,A*%
%TO.N,Net-(LED2-PadA)*%
X127500000Y-114980000D03*
%TO.P,LED2,K*%
%TO.N,Earth*%
X127500000Y-117520000D03*
%TD*%
D12*
%TO.P,R7,1*%
%TO.N,VCC_CAR*%
X92750000Y-106500000D03*
%TO.P,R7,2*%
%TO.N,Sinal do motor*%
X105450000Y-106500000D03*
%TD*%
%TO.P,R2,1*%
%TO.N,Servo Rec*%
X94784875Y-77215125D03*
%TO.P,R2,2*%
%TO.N,Net-(R2-Pad2)*%
X107484875Y-77215125D03*
%TD*%
%TO.P,R12,1*%
%TO.N,5V*%
X87400000Y-113250000D03*
%TO.P,R12,2*%
%TO.N,Net-(LED4-PadA)*%
X100100000Y-113250000D03*
%TD*%
D15*
%TO.P,J2,01,01*%
%TO.N,Sinal do motor*%
X87500000Y-103848625D03*
%TO.P,J2,02,02*%
%TO.N,VCC_CAR*%
X87500000Y-101308625D03*
%TO.P,J2,03,03*%
%TO.N,GND_CAR*%
X87500000Y-98768625D03*
%TO.P,J2,04,04*%
%TO.N,unconnected-(J2-Pad04)*%
X87500000Y-96228625D03*
%TO.P,J2,05,05*%
%TO.N,Sinal do servo*%
X87500000Y-93688625D03*
%TO.P,J2,06,06*%
%TO.N,VCC_CAR*%
X87500000Y-91148625D03*
%TO.P,J2,07,07*%
%TO.N,GND_CAR*%
X87500000Y-88608625D03*
%TO.P,J2,08,08*%
%TO.N,unconnected-(J2-Pad08)*%
X87500000Y-86068625D03*
%TO.P,J2,09,09*%
%TO.N,Motor Rec*%
X87500000Y-83528625D03*
%TO.P,J2,10,10*%
%TO.N,Servo Rec*%
X87500000Y-80988625D03*
%TO.P,J2,11,11*%
%TO.N,unconnected-(J2-Pad11)*%
X87500000Y-78448625D03*
%TO.P,J2,12,12*%
%TO.N,RX_RASPBERRY*%
X87500000Y-75908625D03*
%TO.P,J2,13,13*%
%TO.N,TX_RASPBERRY*%
X87500000Y-73368625D03*
%TO.P,J2,14,14*%
%TO.N,unconnected-(J2-Pad14)*%
X87500000Y-70828625D03*
%TO.P,J2,15,15*%
%TO.N,VCC_CAR*%
X87500000Y-68288625D03*
%TO.P,J2,16,16*%
%TO.N,GND_CAR*%
X87500000Y-65748625D03*
%TD*%
D12*
%TO.P,R4,1*%
%TO.N,25*%
X131750000Y-86650000D03*
%TO.P,R4,2*%
%TO.N,Net-(R4-Pad2)*%
X131750000Y-99350000D03*
%TD*%
%TO.P,R8,1*%
%TO.N,Sinal do servo*%
X106850000Y-99500000D03*
%TO.P,R8,2*%
%TO.N,VCC_CAR*%
X94150000Y-99500000D03*
%TD*%
D16*
%TO.P,ESP_WROOM_32U1,1,3v3*%
%TO.N,3V3*%
X142629875Y-62365125D03*
%TO.P,ESP_WROOM_32U1,2,En*%
%TO.N,unconnected-(ESP_WROOM_32U1-En-Pad2)*%
X142629875Y-64905125D03*
%TO.P,ESP_WROOM_32U1,3,Vp*%
%TO.N,unconnected-(ESP_WROOM_32U1-Vp-Pad3)*%
X142629875Y-67445125D03*
%TO.P,ESP_WROOM_32U1,4,Vn*%
%TO.N,unconnected-(ESP_WROOM_32U1-Vn-Pad4)*%
X142629875Y-69985125D03*
%TO.P,ESP_WROOM_32U1,5,34*%
%TO.N,unconnected-(ESP_WROOM_32U1-34-Pad5)*%
X142629875Y-72525125D03*
%TO.P,ESP_WROOM_32U1,6,35*%
%TO.N,unconnected-(ESP_WROOM_32U1-35-Pad6)*%
X142629875Y-75065125D03*
%TO.P,ESP_WROOM_32U1,7,32*%
%TO.N,unconnected-(ESP_WROOM_32U1-32-Pad7)*%
X142629875Y-77605125D03*
%TO.P,ESP_WROOM_32U1,8,33*%
%TO.N,unconnected-(ESP_WROOM_32U1-33-Pad8)*%
X142629875Y-80145125D03*
%TO.P,ESP_WROOM_32U1,9,25*%
%TO.N,25*%
X142629875Y-82685125D03*
%TO.P,ESP_WROOM_32U1,10,23*%
%TO.N,unconnected-(ESP_WROOM_32U1-23-Pad10)*%
X142629875Y-85225125D03*
%TO.P,ESP_WROOM_32U1,11,27*%
%TO.N,unconnected-(ESP_WROOM_32U1-27-Pad11)*%
X142629875Y-87765125D03*
%TO.P,ESP_WROOM_32U1,12,14*%
%TO.N,14*%
X142629875Y-90305125D03*
%TO.P,ESP_WROOM_32U1,13,12*%
%TO.N,12*%
X142629875Y-92845125D03*
%TO.P,ESP_WROOM_32U1,14,GND*%
%TO.N,Earth*%
X142629875Y-95385125D03*
%TO.P,ESP_WROOM_32U1,15,13*%
%TO.N,unconnected-(ESP_WROOM_32U1-13-Pad15)*%
X142629875Y-97925125D03*
%TO.P,ESP_WROOM_32U1,16,D2*%
%TO.N,unconnected-(ESP_WROOM_32U1-D2-Pad16)*%
X142629875Y-100465125D03*
%TO.P,ESP_WROOM_32U1,17,D3*%
%TO.N,unconnected-(ESP_WROOM_32U1-D3-Pad17)*%
X142629875Y-103005125D03*
%TO.P,ESP_WROOM_32U1,18,CMD*%
%TO.N,unconnected-(ESP_WROOM_32U1-CMD-Pad18)*%
X142629875Y-105545125D03*
%TO.P,ESP_WROOM_32U1,19,5V*%
%TO.N,5V*%
X142629875Y-108085125D03*
%TO.P,ESP_WROOM_32U1,20,GND*%
%TO.N,Earth*%
X167334875Y-62245125D03*
%TO.P,ESP_WROOM_32U1,21,23*%
%TO.N,unconnected-(ESP_WROOM_32U1-23-Pad21)*%
X167334875Y-64785125D03*
%TO.P,ESP_WROOM_32U1,22,22*%
%TO.N,SCL*%
X167334875Y-67325125D03*
%TO.P,ESP_WROOM_32U1,23,TX*%
%TO.N,RX_RASPBERRY*%
X167334875Y-69865125D03*
%TO.P,ESP_WROOM_32U1,24,RX*%
%TO.N,TX_RASPBERRY*%
X167334875Y-72405125D03*
%TO.P,ESP_WROOM_32U1,25,21*%
%TO.N,SDA*%
X167334875Y-74945125D03*
%TO.P,ESP_WROOM_32U1,26,GND*%
%TO.N,Earth*%
X167334875Y-77485125D03*
%TO.P,ESP_WROOM_32U1,27,19*%
%TO.N,unconnected-(ESP_WROOM_32U1-19-Pad27)*%
X167334875Y-80025125D03*
%TO.P,ESP_WROOM_32U1,28,18*%
%TO.N,Estado_3*%
X167334875Y-82565125D03*
%TO.P,ESP_WROOM_32U1,29,5*%
%TO.N,Estado_2*%
X167334875Y-85105125D03*
%TO.P,ESP_WROOM_32U1,30,17*%
%TO.N,Estado_1*%
X167334875Y-87645125D03*
%TO.P,ESP_WROOM_32U1,31,16*%
%TO.N,unconnected-(ESP_WROOM_32U1-16-Pad31)*%
X167334875Y-90185125D03*
%TO.P,ESP_WROOM_32U1,32,4*%
%TO.N,unconnected-(ESP_WROOM_32U1-4-Pad32)*%
X167334875Y-92725125D03*
%TO.P,ESP_WROOM_32U1,33,0*%
%TO.N,unconnected-(ESP_WROOM_32U1-0-Pad33)*%
X167334875Y-95265125D03*
%TO.P,ESP_WROOM_32U1,34,2*%
%TO.N,unconnected-(ESP_WROOM_32U1-2-Pad34)*%
X167334875Y-97805125D03*
%TO.P,ESP_WROOM_32U1,35,15*%
%TO.N,15*%
X167334875Y-100345125D03*
%TO.P,ESP_WROOM_32U1,36,D1*%
%TO.N,unconnected-(ESP_WROOM_32U1-D1-Pad36)*%
X167334875Y-102885125D03*
%TO.P,ESP_WROOM_32U1,37,D0*%
%TO.N,unconnected-(ESP_WROOM_32U1-D0-Pad37)*%
X167334875Y-105425125D03*
%TO.P,ESP_WROOM_32U1,38,CLK*%
%TO.N,unconnected-(ESP_WROOM_32U1-CLK-Pad38)*%
X167334875Y-107965125D03*
%TD*%
D17*
%TO.N,Earth*%
X80750000Y-48750000D03*
X80750000Y-116500000D03*
X171750000Y-116500000D03*
X171750000Y-48750000D03*
D18*
%TO.N,TX_RASPBERRY*%
X92750000Y-54750000D03*
X92750000Y-71750000D03*
%TO.N,RX_RASPBERRY*%
X95250000Y-54750000D03*
X95250000Y-74250000D03*
%TO.N,15*%
X135784875Y-67715125D03*
X135784875Y-59215125D03*
%TD*%
D19*
%TO.N,14*%
X121190125Y-85440125D02*
X121059875Y-85440125D01*
X119449875Y-85440125D02*
X121059875Y-85440125D01*
X142629875Y-90305125D02*
X126055125Y-90305125D01*
X121059875Y-85440125D02*
X123500000Y-83000000D01*
X126055125Y-90305125D02*
X121190125Y-85440125D01*
X119509750Y-85500000D02*
X119449875Y-85440125D01*
%TO.N,5V*%
X95119286Y-65619286D02*
X100897375Y-65619286D01*
X83875000Y-110375000D02*
X83000000Y-109500000D01*
X83000000Y-109500000D02*
X81500000Y-108000000D01*
X81500000Y-64750000D02*
X84250000Y-62000000D01*
X113500000Y-108000000D02*
X111125000Y-110375000D01*
X86750000Y-113250000D02*
X83000000Y-109500000D01*
X111125000Y-110375000D02*
X83875000Y-110375000D01*
X87400000Y-113250000D02*
X86750000Y-113250000D01*
X84250000Y-62000000D02*
X91500000Y-62000000D01*
X142544750Y-108000000D02*
X113500000Y-108000000D01*
X142629875Y-108085125D02*
X142544750Y-108000000D01*
X81500000Y-108000000D02*
X81500000Y-64750000D01*
X91500000Y-62000000D02*
X95119286Y-65619286D01*
%TO.N,SCL*%
X158069750Y-54500000D02*
X117000000Y-54500000D01*
X167334875Y-67325125D02*
X166144875Y-67325125D01*
X117000000Y-54500000D02*
X108215125Y-63284875D01*
X108215125Y-63284875D02*
X108215125Y-65605965D01*
X164434875Y-60865125D02*
X158069750Y-54500000D01*
X164434875Y-65615125D02*
X164434875Y-60865125D01*
X166144875Y-67325125D02*
X164434875Y-65615125D01*
%TO.N,SDA*%
X162534875Y-72465125D02*
X162534875Y-62215125D01*
X165014875Y-74945125D02*
X162534875Y-72465125D01*
X110755125Y-63994875D02*
X110755125Y-65605965D01*
X167334875Y-74945125D02*
X165014875Y-74945125D01*
X156569750Y-56250000D02*
X118500000Y-56250000D01*
X162534875Y-62215125D02*
X156569750Y-56250000D01*
X118500000Y-56250000D02*
X110755125Y-63994875D01*
%TO.N,Servo Rec*%
X92784875Y-77215125D02*
X94784875Y-77215125D01*
X87284875Y-80925125D02*
X89074875Y-80925125D01*
X89074875Y-80925125D02*
X92784875Y-77215125D01*
%TO.N,Motor Rec*%
X93034875Y-85465125D02*
X94784875Y-85465125D01*
X87284875Y-83465125D02*
X91034875Y-83465125D01*
X91034875Y-83465125D02*
X93034875Y-85465125D01*
%TO.N,GND_CAR*%
X91250000Y-97500000D02*
X97000000Y-97500000D01*
X100750000Y-74500000D02*
X100750000Y-77680250D01*
X89981375Y-98768625D02*
X91250000Y-97500000D01*
X113500000Y-100250000D02*
X111769750Y-100250000D01*
X111201375Y-88608625D02*
X97391375Y-88608625D01*
X112445000Y-75265000D02*
X112445000Y-79015000D01*
X111895000Y-92500000D02*
X113500000Y-92500000D01*
X87284875Y-65685125D02*
X89254875Y-65685125D01*
X92034875Y-68465125D02*
X92034875Y-68534875D01*
X111420000Y-100500000D02*
X111719875Y-100200125D01*
X111769750Y-100250000D02*
X111719875Y-100200125D01*
X89254875Y-65685125D02*
X92034875Y-68465125D01*
X113500000Y-92500000D02*
X115000000Y-94000000D01*
X115000000Y-98750000D02*
X113500000Y-100250000D01*
X87500000Y-98768625D02*
X89981375Y-98768625D01*
X111829875Y-87980125D02*
X111201375Y-88608625D01*
X97391375Y-88608625D02*
X87500000Y-88608625D01*
X95000000Y-68750000D02*
X100750000Y-74500000D01*
X112445000Y-79015000D02*
X109994875Y-81465125D01*
X108500000Y-102000000D02*
X110000000Y-100500000D01*
X101500000Y-102000000D02*
X108500000Y-102000000D01*
X100750000Y-77680250D02*
X104534875Y-81465125D01*
X115000000Y-94000000D02*
X115000000Y-98750000D01*
X92250000Y-68750000D02*
X95000000Y-68750000D01*
X109994875Y-81465125D02*
X104534875Y-81465125D01*
X111719875Y-92675125D02*
X111895000Y-92500000D01*
X92034875Y-68534875D02*
X92250000Y-68750000D01*
X111719875Y-92675125D02*
X111719875Y-88090125D01*
X97000000Y-97500000D02*
X101500000Y-102000000D01*
X104534875Y-81465125D02*
X97391375Y-88608625D01*
X110000000Y-100500000D02*
X111420000Y-100500000D01*
X111719875Y-88090125D02*
X111829875Y-87980125D01*
%TO.N,Sinal do motor*%
X87500000Y-103848625D02*
X108101375Y-103848625D01*
X108101375Y-103848625D02*
X105450000Y-106500000D01*
X110611375Y-103848625D02*
X108101375Y-103848625D01*
X111719875Y-102740125D02*
X110611375Y-103848625D01*
%TO.N,Net-(R1-Pad2)*%
X107509875Y-85440125D02*
X107484875Y-85465125D01*
X111829875Y-85440125D02*
X107509875Y-85440125D01*
%TO.N,Net-(R2-Pad2)*%
X107484875Y-74015125D02*
X108775000Y-72725000D01*
X108775000Y-72725000D02*
X112445000Y-72725000D01*
X107484875Y-77215125D02*
X107484875Y-74015125D01*
%TO.N,Net-(R3-Pad2)*%
X123434875Y-102715125D02*
X119364875Y-102715125D01*
X119364875Y-102715125D02*
X119339875Y-102740125D01*
%TO.N,12*%
X139500000Y-101000000D02*
X137784875Y-102715125D01*
X137784875Y-102715125D02*
X136134875Y-102715125D01*
X142629875Y-92845125D02*
X140654875Y-92845125D01*
X140654875Y-92845125D02*
X139500000Y-94000000D01*
X139500000Y-94000000D02*
X139500000Y-101000000D01*
%TO.N,Net-(R4-Pad2)*%
X123434875Y-95215125D02*
X127569750Y-99350000D01*
X127569750Y-99350000D02*
X131750000Y-99350000D01*
X123434875Y-95215125D02*
X119339875Y-95215125D01*
%TO.N,25*%
X139500000Y-83655125D02*
X140470000Y-82685125D01*
X136505125Y-86650000D02*
X139500000Y-83655125D01*
X131750000Y-86650000D02*
X136505125Y-86650000D01*
X140470000Y-82685125D02*
X142629875Y-82685125D01*
%TO.N,TX_RASPBERRY*%
X96284875Y-47965125D02*
X160965125Y-47965125D01*
X91250000Y-71750000D02*
X89694875Y-73305125D01*
X169993875Y-72405125D02*
X167334875Y-72405125D01*
X92750000Y-71750000D02*
X91250000Y-71750000D01*
X89694875Y-73305125D02*
X87284875Y-73305125D01*
X92750000Y-54750000D02*
X92750000Y-51500000D01*
X92750000Y-51500000D02*
X96284875Y-47965125D01*
X172034875Y-59034875D02*
X172034875Y-70364125D01*
X160965125Y-47965125D02*
X172034875Y-59034875D01*
X172034875Y-70364125D02*
X169993875Y-72405125D01*
%TO.N,Estado_3*%
X164015125Y-82565125D02*
X163350000Y-81900000D01*
X167334875Y-82565125D02*
X164015125Y-82565125D01*
X163350000Y-81900000D02*
X163350000Y-79000000D01*
X167150000Y-82750000D02*
X167334875Y-82565125D01*
%TO.N,Estado_2*%
X163455125Y-85105125D02*
X163350000Y-85000000D01*
X167334875Y-85105125D02*
X163455125Y-85105125D01*
%TO.N,RX_RASPBERRY*%
X97534875Y-50465125D02*
X160215125Y-50465125D01*
X169384875Y-69865125D02*
X167334875Y-69865125D01*
X160215125Y-50465125D02*
X170034875Y-60284875D01*
X95250000Y-52750000D02*
X97534875Y-50465125D01*
X95250000Y-54750000D02*
X95250000Y-52750000D01*
X92250000Y-74250000D02*
X90654875Y-75845125D01*
X90654875Y-75845125D02*
X87284875Y-75845125D01*
X170034875Y-60284875D02*
X170034875Y-69215125D01*
X170034875Y-69215125D02*
X169384875Y-69865125D01*
X95250000Y-74250000D02*
X92250000Y-74250000D01*
%TO.N,Estado_1*%
X167334875Y-87645125D02*
X163854875Y-87645125D01*
X163854875Y-87645125D02*
X163250000Y-88250000D01*
X163250000Y-88250000D02*
X163250000Y-91250000D01*
%TO.N,3V3*%
X136100000Y-72000000D02*
X139000000Y-69100000D01*
X139000000Y-64500000D02*
X141134875Y-62365125D01*
X115750000Y-71000000D02*
X114000000Y-69250000D01*
X103135125Y-68135125D02*
X103135125Y-65605965D01*
X117500000Y-78250000D02*
X115750000Y-76500000D01*
X136100000Y-79500000D02*
X136000000Y-79500000D01*
X125250000Y-75750000D02*
X122750000Y-78250000D01*
X136100000Y-76750000D02*
X136100000Y-79500000D01*
X114000000Y-69250000D02*
X104250000Y-69250000D01*
X141134875Y-62365125D02*
X142629875Y-62365125D01*
X139000000Y-69100000D02*
X139000000Y-64500000D01*
X115750000Y-76500000D02*
X115750000Y-71000000D01*
X136000000Y-79500000D02*
X132250000Y-75750000D01*
X136100000Y-79500000D02*
X136100000Y-83000000D01*
X122750000Y-78250000D02*
X117500000Y-78250000D01*
X136100000Y-76750000D02*
X136100000Y-72000000D01*
X104250000Y-69250000D02*
X103135125Y-68135125D01*
X132250000Y-75750000D02*
X125250000Y-75750000D01*
%TO.N,15*%
X154965125Y-59215125D02*
X159500000Y-63750000D01*
X163595125Y-100345125D02*
X167334875Y-100345125D01*
X135784875Y-67715125D02*
X134250000Y-69250000D01*
X159500000Y-96250000D02*
X163595125Y-100345125D01*
X159500000Y-63750000D02*
X159500000Y-96250000D01*
X120065000Y-72725000D02*
X122675000Y-72725000D01*
X122675000Y-72725000D02*
X123400000Y-72000000D01*
X135784875Y-59215125D02*
X154965125Y-59215125D01*
X126150000Y-69250000D02*
X123400000Y-72000000D01*
X134250000Y-69250000D02*
X126150000Y-69250000D01*
%TO.N,VCC_CAR*%
X83500000Y-99680250D02*
X83500000Y-88750000D01*
X87284875Y-101245125D02*
X85064875Y-101245125D01*
X83500000Y-70500000D02*
X83500000Y-88215125D01*
X87500000Y-68288625D02*
X85711375Y-68288625D01*
X85064875Y-101245125D02*
X83500000Y-99680250D01*
X85898625Y-91148625D02*
X83500000Y-88750000D01*
X92341375Y-101308625D02*
X94150000Y-99500000D01*
X83534875Y-104784875D02*
X83534875Y-102775125D01*
X87500000Y-101308625D02*
X92341375Y-101308625D01*
X83500000Y-88750000D02*
X83500000Y-88215125D01*
X85711375Y-68288625D02*
X83500000Y-70500000D01*
X92750000Y-106500000D02*
X85250000Y-106500000D01*
X85250000Y-106500000D02*
X83534875Y-104784875D01*
X87500000Y-91148625D02*
X85898625Y-91148625D01*
X83534875Y-102775125D02*
X85064875Y-101245125D01*
%TO.N,Sinal do servo*%
X111719875Y-95240125D02*
X108659875Y-95240125D01*
X106850000Y-99500000D02*
X106850000Y-97050000D01*
X87500000Y-93688625D02*
X107108375Y-93688625D01*
X107108375Y-93688625D02*
X108659875Y-95240125D01*
X106850000Y-97050000D02*
X108659875Y-95240125D01*
%TO.N,Net-(LED1-PadA)*%
X154250000Y-79000000D02*
X150650000Y-79000000D01*
X137500000Y-114980000D02*
X151520000Y-114980000D01*
X151520000Y-114980000D02*
X157000000Y-109500000D01*
X157000000Y-81750000D02*
X154250000Y-79000000D01*
X157000000Y-109500000D02*
X157000000Y-81750000D01*
%TO.N,Net-(LED2-PadA)*%
X149750000Y-113000000D02*
X154000000Y-108750000D01*
X127500000Y-114980000D02*
X129480000Y-113000000D01*
X129480000Y-113000000D02*
X149750000Y-113000000D01*
X152500000Y-85000000D02*
X150650000Y-85000000D01*
X154000000Y-86500000D02*
X152500000Y-85000000D01*
X154000000Y-108750000D02*
X154000000Y-86500000D01*
%TO.N,Net-(LED3-PadA)*%
X147750000Y-111000000D02*
X121500000Y-111000000D01*
X150550000Y-108200000D02*
X147750000Y-111000000D01*
X150550000Y-91250000D02*
X150550000Y-108200000D01*
X121500000Y-111000000D02*
X117500000Y-115000000D01*
%TO.N,Net-(LED4-PadA)*%
X105000000Y-114980000D02*
X101830000Y-114980000D01*
X101830000Y-114980000D02*
X100100000Y-113250000D01*
%TD*%
%TA.AperFunction,Conductor*%
%TO.N,Earth*%
G36*
X174227414Y-46235310D02*
G01*
X174273169Y-46288114D01*
X174284375Y-46339625D01*
X174284375Y-118840625D01*
X174264690Y-118907664D01*
X174211886Y-118953419D01*
X174160375Y-118964625D01*
X78409375Y-118964625D01*
X78342336Y-118944940D01*
X78296581Y-118892136D01*
X78285375Y-118840625D01*
X78285375Y-64663389D01*
X80399500Y-64663389D01*
X80399500Y-108086610D01*
X80417968Y-108203217D01*
X80426598Y-108257701D01*
X80480127Y-108422445D01*
X80558768Y-108576788D01*
X80660586Y-108716928D01*
X82160586Y-110216928D01*
X85910586Y-113966928D01*
X86033072Y-114089414D01*
X86173212Y-114191232D01*
X86327555Y-114269873D01*
X86492299Y-114323402D01*
X86663389Y-114350500D01*
X86665488Y-114350500D01*
X86666512Y-114350746D01*
X86668252Y-114350883D01*
X86668230Y-114351158D01*
X86721779Y-114364014D01*
X86775832Y-114391555D01*
X86900776Y-114455218D01*
X86900778Y-114455218D01*
X86900781Y-114455220D01*
X87005137Y-114489127D01*
X87095465Y-114518477D01*
X87195784Y-114534366D01*
X87297648Y-114550500D01*
X87297649Y-114550500D01*
X87502351Y-114550500D01*
X87502352Y-114550500D01*
X87704534Y-114518477D01*
X87899219Y-114455220D01*
X88081610Y-114362287D01*
X88208811Y-114269871D01*
X88247213Y-114241971D01*
X88247215Y-114241968D01*
X88247219Y-114241966D01*
X88391966Y-114097219D01*
X88391968Y-114097215D01*
X88391971Y-114097213D01*
X88499446Y-113949284D01*
X88512287Y-113931610D01*
X88605220Y-113749219D01*
X88668477Y-113554534D01*
X88700500Y-113352352D01*
X88700500Y-113147648D01*
X98799500Y-113147648D01*
X98799500Y-113352351D01*
X98831522Y-113554534D01*
X98894781Y-113749223D01*
X98958069Y-113873431D01*
X98973722Y-113904152D01*
X98987715Y-113931613D01*
X99108028Y-114097213D01*
X99252786Y-114241971D01*
X99402166Y-114350500D01*
X99418390Y-114362287D01*
X99600781Y-114455220D01*
X99759431Y-114506768D01*
X99791846Y-114517301D01*
X99841209Y-114547551D01*
X101113072Y-115819414D01*
X101253212Y-115921232D01*
X101326131Y-115958386D01*
X101407549Y-115999871D01*
X101407551Y-115999871D01*
X101407554Y-115999873D01*
X101572299Y-116053402D01*
X101743389Y-116080500D01*
X101916610Y-116080500D01*
X104610599Y-116080500D01*
X104648916Y-116086568D01*
X104679671Y-116096561D01*
X104728154Y-116112315D01*
X104908630Y-116140900D01*
X104908635Y-116140900D01*
X105091370Y-116140900D01*
X105191631Y-116125019D01*
X105271845Y-116112315D01*
X105445631Y-116055848D01*
X105608444Y-115972891D01*
X105756276Y-115865485D01*
X105885485Y-115736276D01*
X105992891Y-115588444D01*
X106075848Y-115425631D01*
X106132315Y-115251845D01*
X106157732Y-115091370D01*
X106160900Y-115071370D01*
X106160900Y-114908629D01*
X116339100Y-114908629D01*
X116339100Y-115091370D01*
X116364517Y-115251845D01*
X116367685Y-115271845D01*
X116424152Y-115445631D01*
X116507109Y-115608444D01*
X116614515Y-115756276D01*
X116743724Y-115885485D01*
X116891556Y-115992891D01*
X117054369Y-116075848D01*
X117228155Y-116132315D01*
X117295835Y-116143034D01*
X117408630Y-116160900D01*
X117408635Y-116160900D01*
X117591370Y-116160900D01*
X117691631Y-116145019D01*
X117771845Y-116132315D01*
X117945631Y-116075848D01*
X118108444Y-115992891D01*
X118256276Y-115885485D01*
X118385485Y-115756276D01*
X118492891Y-115608444D01*
X118530717Y-115534203D01*
X118553515Y-115502825D01*
X121919523Y-112136819D01*
X121980846Y-112103334D01*
X122007204Y-112100500D01*
X128523796Y-112100500D01*
X128590835Y-112120185D01*
X128636590Y-112172989D01*
X128646534Y-112242147D01*
X128617509Y-112305703D01*
X128611477Y-112312181D01*
X126997175Y-113926481D01*
X126965789Y-113949284D01*
X126891560Y-113987105D01*
X126743721Y-114094517D01*
X126614517Y-114223721D01*
X126507109Y-114371555D01*
X126424153Y-114534366D01*
X126367684Y-114708158D01*
X126339100Y-114888629D01*
X126339100Y-115071370D01*
X126342268Y-115091370D01*
X126367685Y-115251845D01*
X126424152Y-115425631D01*
X126507109Y-115588444D01*
X126614515Y-115736276D01*
X126743724Y-115865485D01*
X126891556Y-115972891D01*
X127054369Y-116055848D01*
X127228155Y-116112315D01*
X127295835Y-116123034D01*
X127408630Y-116140900D01*
X127408635Y-116140900D01*
X127591370Y-116140900D01*
X127691631Y-116125019D01*
X127771845Y-116112315D01*
X127945631Y-116055848D01*
X128108444Y-115972891D01*
X128256276Y-115865485D01*
X128385485Y-115736276D01*
X128492891Y-115588444D01*
X128530717Y-115514203D01*
X128553515Y-115482825D01*
X129899523Y-114136819D01*
X129960846Y-114103334D01*
X129987204Y-114100500D01*
X136460679Y-114100500D01*
X136527718Y-114120185D01*
X136573473Y-114172989D01*
X136583417Y-114242147D01*
X136560997Y-114297386D01*
X136507109Y-114371555D01*
X136424153Y-114534366D01*
X136367684Y-114708158D01*
X136339100Y-114888629D01*
X136339100Y-115071370D01*
X136342268Y-115091370D01*
X136367685Y-115251845D01*
X136424152Y-115425631D01*
X136507109Y-115588444D01*
X136614515Y-115736276D01*
X136743724Y-115865485D01*
X136891556Y-115972891D01*
X137054369Y-116055848D01*
X137228155Y-116112315D01*
X137295835Y-116123034D01*
X137408630Y-116140900D01*
X137408635Y-116140900D01*
X137591370Y-116140900D01*
X137771845Y-116112315D01*
X137851083Y-116086568D01*
X137889401Y-116080500D01*
X151606610Y-116080500D01*
X151606611Y-116080500D01*
X151777701Y-116053402D01*
X151942445Y-115999873D01*
X152096788Y-115921232D01*
X152236928Y-115819414D01*
X157839414Y-110216928D01*
X157941232Y-110076788D01*
X158019873Y-109922446D01*
X158073402Y-109757701D01*
X158100500Y-109586611D01*
X158100500Y-109413390D01*
X158100500Y-109413389D01*
X158100500Y-81663389D01*
X158073402Y-81492299D01*
X158036431Y-81378514D01*
X158019873Y-81327554D01*
X158019871Y-81327551D01*
X158019871Y-81327549D01*
X157962519Y-81214990D01*
X157941232Y-81173212D01*
X157839414Y-81033072D01*
X154966928Y-78160586D01*
X154826788Y-78058768D01*
X154672445Y-77980127D01*
X154507701Y-77926598D01*
X154507699Y-77926597D01*
X154507698Y-77926597D01*
X154376271Y-77905781D01*
X154336611Y-77899500D01*
X154336610Y-77899500D01*
X151384512Y-77899500D01*
X151328220Y-77885985D01*
X151249089Y-77845666D01*
X151149223Y-77794781D01*
X150954534Y-77731522D01*
X150779995Y-77703878D01*
X150752352Y-77699500D01*
X150547648Y-77699500D01*
X150523329Y-77703351D01*
X150345465Y-77731522D01*
X150150776Y-77794781D01*
X149968386Y-77887715D01*
X149802786Y-78008028D01*
X149658028Y-78152786D01*
X149537715Y-78318386D01*
X149444781Y-78500776D01*
X149381522Y-78695465D01*
X149349500Y-78897648D01*
X149349500Y-79102351D01*
X149381522Y-79304534D01*
X149444781Y-79499223D01*
X149457661Y-79524500D01*
X149533711Y-79673756D01*
X149537715Y-79681613D01*
X149658028Y-79847213D01*
X149802786Y-79991971D01*
X149952166Y-80100500D01*
X149968390Y-80112287D01*
X150084607Y-80171503D01*
X150150776Y-80205218D01*
X150150778Y-80205218D01*
X150150781Y-80205220D01*
X150255137Y-80239127D01*
X150345465Y-80268477D01*
X150446557Y-80284488D01*
X150547648Y-80300500D01*
X150547649Y-80300500D01*
X150752351Y-80300500D01*
X150752352Y-80300500D01*
X150954534Y-80268477D01*
X151149219Y-80205220D01*
X151328220Y-80114014D01*
X151384512Y-80100500D01*
X153742796Y-80100500D01*
X153809835Y-80120185D01*
X153830477Y-80136819D01*
X155863181Y-82169523D01*
X155896666Y-82230846D01*
X155899500Y-82257204D01*
X155899500Y-108992796D01*
X155879815Y-109059835D01*
X155863181Y-109080477D01*
X151100477Y-113843181D01*
X151039154Y-113876666D01*
X151012796Y-113879500D01*
X150726204Y-113879500D01*
X150659165Y-113859815D01*
X150613410Y-113807011D01*
X150603466Y-113737853D01*
X150632491Y-113674297D01*
X150638523Y-113667819D01*
X152680484Y-111625858D01*
X154839414Y-109466928D01*
X154867204Y-109428678D01*
X154941232Y-109326788D01*
X155019873Y-109172445D01*
X155073402Y-109007701D01*
X155100500Y-108836611D01*
X155100500Y-86413389D01*
X155073402Y-86242299D01*
X155053827Y-86182053D01*
X155019873Y-86077554D01*
X155019871Y-86077551D01*
X155019871Y-86077549D01*
X154962190Y-85964344D01*
X154941232Y-85923212D01*
X154839414Y-85783072D01*
X153216928Y-84160586D01*
X153076788Y-84058768D01*
X152922445Y-83980127D01*
X152757701Y-83926598D01*
X152757699Y-83926597D01*
X152757698Y-83926597D01*
X152626271Y-83905781D01*
X152586611Y-83899500D01*
X152586610Y-83899500D01*
X151384512Y-83899500D01*
X151328220Y-83885985D01*
X151249089Y-83845666D01*
X151149223Y-83794781D01*
X150954534Y-83731522D01*
X150775744Y-83703205D01*
X150752352Y-83699500D01*
X150547648Y-83699500D01*
X150524256Y-83703205D01*
X150345465Y-83731522D01*
X150150776Y-83794781D01*
X149968386Y-83887715D01*
X149802786Y-84008028D01*
X149658028Y-84152786D01*
X149537715Y-84318386D01*
X149444781Y-84500776D01*
X149381522Y-84695465D01*
X149358614Y-84840106D01*
X149349500Y-84897648D01*
X149349500Y-85102352D01*
X149353878Y-85129995D01*
X149381522Y-85304534D01*
X149444781Y-85499223D01*
X149479559Y-85567477D01*
X149525700Y-85658034D01*
X149537715Y-85681613D01*
X149658028Y-85847213D01*
X149802786Y-85991971D01*
X149927580Y-86082637D01*
X149968390Y-86112287D01*
X150043929Y-86150776D01*
X150150776Y-86205218D01*
X150150778Y-86205218D01*
X150150781Y-86205220D01*
X150212612Y-86225310D01*
X150345465Y-86268477D01*
X150385431Y-86274807D01*
X150547648Y-86300500D01*
X150547649Y-86300500D01*
X150752351Y-86300500D01*
X150752352Y-86300500D01*
X150954534Y-86268477D01*
X151149219Y-86205220D01*
X151328220Y-86114014D01*
X151384512Y-86100500D01*
X151992796Y-86100500D01*
X152059835Y-86120185D01*
X152080477Y-86136819D01*
X152863181Y-86919523D01*
X152896666Y-86980846D01*
X152899500Y-87007204D01*
X152899500Y-108242796D01*
X152879815Y-108309835D01*
X152863181Y-108330477D01*
X149330477Y-111863181D01*
X149269154Y-111896666D01*
X149242796Y-111899500D01*
X148706204Y-111899500D01*
X148639165Y-111879815D01*
X148593410Y-111827011D01*
X148583466Y-111757853D01*
X148612491Y-111694297D01*
X148618523Y-111687819D01*
X149091931Y-111214411D01*
X151389414Y-108916928D01*
X151491232Y-108776788D01*
X151569873Y-108622445D01*
X151623402Y-108457701D01*
X151650500Y-108286611D01*
X151650500Y-108113389D01*
X151650500Y-91984513D01*
X151664015Y-91928218D01*
X151676410Y-91903893D01*
X151755220Y-91749219D01*
X151818477Y-91554534D01*
X151850500Y-91352352D01*
X151850500Y-91147648D01*
X151818477Y-90945466D01*
X151755220Y-90750781D01*
X151755218Y-90750778D01*
X151755218Y-90750776D01*
X151707178Y-90656493D01*
X151662287Y-90568390D01*
X151623851Y-90515487D01*
X151541971Y-90402786D01*
X151397213Y-90258028D01*
X151231613Y-90137715D01*
X151231612Y-90137714D01*
X151231610Y-90137713D01*
X151174653Y-90108691D01*
X151049223Y-90044781D01*
X150854534Y-89981522D01*
X150679223Y-89953756D01*
X150652352Y-89949500D01*
X150447648Y-89949500D01*
X150423329Y-89953351D01*
X150245465Y-89981522D01*
X150050776Y-90044781D01*
X149868386Y-90137715D01*
X149702786Y-90258028D01*
X149558028Y-90402786D01*
X149437715Y-90568386D01*
X149344781Y-90750776D01*
X149281522Y-90945465D01*
X149249500Y-91147648D01*
X149249500Y-91352351D01*
X149281522Y-91554534D01*
X149344781Y-91749223D01*
X149383521Y-91825253D01*
X149423590Y-91903893D01*
X149435985Y-91928218D01*
X149449500Y-91984513D01*
X149449500Y-107692796D01*
X149429815Y-107759835D01*
X149413181Y-107780477D01*
X147330477Y-109863181D01*
X147269154Y-109896666D01*
X147242796Y-109899500D01*
X121586611Y-109899500D01*
X121413389Y-109899500D01*
X121327844Y-109913049D01*
X121242298Y-109926598D01*
X121077549Y-109980128D01*
X120923211Y-110058768D01*
X120843256Y-110116859D01*
X120783072Y-110160586D01*
X120783070Y-110160588D01*
X120783069Y-110160588D01*
X116997175Y-113946481D01*
X116965789Y-113969284D01*
X116891560Y-114007105D01*
X116743721Y-114114517D01*
X116614517Y-114243721D01*
X116507109Y-114391555D01*
X116424153Y-114554366D01*
X116367684Y-114728158D01*
X116339100Y-114908629D01*
X106160900Y-114908629D01*
X106160900Y-114888629D01*
X106135483Y-114728158D01*
X106132315Y-114708155D01*
X106075848Y-114534369D01*
X105992891Y-114371556D01*
X105885485Y-114223724D01*
X105756276Y-114094515D01*
X105608444Y-113987109D01*
X105516709Y-113940368D01*
X105445633Y-113904153D01*
X105445632Y-113904152D01*
X105445631Y-113904152D01*
X105271845Y-113847685D01*
X105271843Y-113847684D01*
X105271841Y-113847684D01*
X105091370Y-113819100D01*
X105091365Y-113819100D01*
X104908635Y-113819100D01*
X104908630Y-113819100D01*
X104728154Y-113847684D01*
X104659584Y-113869964D01*
X104648916Y-113873431D01*
X104610599Y-113879500D01*
X102337204Y-113879500D01*
X102270165Y-113859815D01*
X102249523Y-113843181D01*
X101397551Y-112991209D01*
X101367301Y-112941846D01*
X101356768Y-112909431D01*
X101305220Y-112750781D01*
X101212287Y-112568390D01*
X101204556Y-112557749D01*
X101091971Y-112402786D01*
X100947213Y-112258028D01*
X100781613Y-112137715D01*
X100781612Y-112137714D01*
X100781610Y-112137713D01*
X100714138Y-112103334D01*
X100599223Y-112044781D01*
X100404534Y-111981522D01*
X100229995Y-111953878D01*
X100202352Y-111949500D01*
X99997648Y-111949500D01*
X99973329Y-111953351D01*
X99795465Y-111981522D01*
X99600776Y-112044781D01*
X99418386Y-112137715D01*
X99252786Y-112258028D01*
X99108028Y-112402786D01*
X98987715Y-112568386D01*
X98894781Y-112750776D01*
X98831522Y-112945465D01*
X98799500Y-113147648D01*
X88700500Y-113147648D01*
X88668477Y-112945466D01*
X88605220Y-112750781D01*
X88605218Y-112750778D01*
X88605218Y-112750776D01*
X88571503Y-112684607D01*
X88512287Y-112568390D01*
X88504556Y-112557749D01*
X88391971Y-112402786D01*
X88247213Y-112258028D01*
X88081613Y-112137715D01*
X88081612Y-112137714D01*
X88081610Y-112137713D01*
X88014138Y-112103334D01*
X87899223Y-112044781D01*
X87704534Y-111981522D01*
X87529995Y-111953878D01*
X87502352Y-111949500D01*
X87297648Y-111949500D01*
X87108142Y-111979514D01*
X87038849Y-111970559D01*
X87001064Y-111944722D01*
X86743523Y-111687181D01*
X86710038Y-111625858D01*
X86715022Y-111556166D01*
X86756894Y-111500233D01*
X86822358Y-111475816D01*
X86831204Y-111475500D01*
X111211610Y-111475500D01*
X111211611Y-111475500D01*
X111382701Y-111448402D01*
X111547445Y-111394873D01*
X111701788Y-111316232D01*
X111841928Y-111214414D01*
X113919523Y-109136819D01*
X113980846Y-109103334D01*
X114007204Y-109100500D01*
X141471861Y-109100500D01*
X141538900Y-109120185D01*
X141559542Y-109136819D01*
X141652365Y-109229642D01*
X141843442Y-109368468D01*
X141942866Y-109419127D01*
X142053878Y-109475691D01*
X142053880Y-109475691D01*
X142053883Y-109475693D01*
X142174287Y-109514814D01*
X142278506Y-109548678D01*
X142511778Y-109585625D01*
X142511783Y-109585625D01*
X142747972Y-109585625D01*
X142981243Y-109548678D01*
X143205867Y-109475693D01*
X143416308Y-109368468D01*
X143607385Y-109229642D01*
X143774392Y-109062635D01*
X143913218Y-108871558D01*
X144020443Y-108661117D01*
X144093428Y-108436493D01*
X144095653Y-108422445D01*
X144130375Y-108203222D01*
X144130375Y-107967027D01*
X144093428Y-107733756D01*
X144054521Y-107614015D01*
X144020443Y-107509133D01*
X144020441Y-107509130D01*
X144020441Y-107509128D01*
X143959297Y-107389128D01*
X143913218Y-107298692D01*
X143774392Y-107107615D01*
X143607385Y-106940608D01*
X143572747Y-106915442D01*
X143530082Y-106860114D01*
X143524103Y-106790500D01*
X143556708Y-106728705D01*
X143572748Y-106714807D01*
X143607385Y-106689642D01*
X143774392Y-106522635D01*
X143913218Y-106331558D01*
X144020443Y-106121117D01*
X144093428Y-105896493D01*
X144123567Y-105706204D01*
X144130375Y-105663222D01*
X144130375Y-105427027D01*
X144093428Y-105193756D01*
X144059564Y-105089537D01*
X144020443Y-104969133D01*
X144020441Y-104969130D01*
X144020441Y-104969128D01*
X143929097Y-104789856D01*
X143913218Y-104758692D01*
X143774392Y-104567615D01*
X143607385Y-104400608D01*
X143572747Y-104375442D01*
X143530082Y-104320114D01*
X143524103Y-104250500D01*
X143556708Y-104188705D01*
X143572748Y-104174807D01*
X143607385Y-104149642D01*
X143774392Y-103982635D01*
X143913218Y-103791558D01*
X144020443Y-103581117D01*
X144093428Y-103356493D01*
X144101239Y-103307176D01*
X144130375Y-103123222D01*
X144130375Y-102887027D01*
X144093428Y-102653756D01*
X144054638Y-102534373D01*
X144020443Y-102429133D01*
X144020441Y-102429130D01*
X144020441Y-102429128D01*
X143929097Y-102249856D01*
X143913218Y-102218692D01*
X143774392Y-102027615D01*
X143607385Y-101860608D01*
X143572747Y-101835442D01*
X143530082Y-101780114D01*
X143524103Y-101710500D01*
X143556708Y-101648705D01*
X143572748Y-101634807D01*
X143607385Y-101609642D01*
X143774392Y-101442635D01*
X143913218Y-101251558D01*
X144020443Y-101041117D01*
X144093428Y-100816493D01*
X144096428Y-100797551D01*
X144130375Y-100583222D01*
X144130375Y-100347027D01*
X144093428Y-100113756D01*
X144059564Y-100009537D01*
X144020443Y-99889133D01*
X144020441Y-99889130D01*
X144020441Y-99889128D01*
X143929097Y-99709856D01*
X143913218Y-99678692D01*
X143774392Y-99487615D01*
X143607385Y-99320608D01*
X143572747Y-99295442D01*
X143530082Y-99240114D01*
X143524103Y-99170500D01*
X143556708Y-99108705D01*
X143572748Y-99094807D01*
X143607385Y-99069642D01*
X143774392Y-98902635D01*
X143913218Y-98711558D01*
X144020443Y-98501117D01*
X144093428Y-98276493D01*
X144114289Y-98144781D01*
X144130375Y-98043222D01*
X144130375Y-97807027D01*
X144093428Y-97573756D01*
X144059560Y-97469523D01*
X144020443Y-97349133D01*
X144020441Y-97349130D01*
X144020441Y-97349128D01*
X143959297Y-97229128D01*
X143913218Y-97138692D01*
X143774392Y-96947615D01*
X143607385Y-96780608D01*
X143416308Y-96641782D01*
X143376593Y-96621546D01*
X143205871Y-96534558D01*
X142981243Y-96461571D01*
X142747972Y-96424625D01*
X142747967Y-96424625D01*
X142511783Y-96424625D01*
X142511778Y-96424625D01*
X142278506Y-96461571D01*
X142053878Y-96534558D01*
X141843441Y-96641782D01*
X141801238Y-96672445D01*
X141652365Y-96780608D01*
X141652363Y-96780610D01*
X141652362Y-96780610D01*
X141485360Y-96947612D01*
X141485360Y-96947613D01*
X141485358Y-96947615D01*
X141471326Y-96966929D01*
X141346532Y-97138691D01*
X141239308Y-97349128D01*
X141166321Y-97573756D01*
X141129375Y-97807027D01*
X141129375Y-98043222D01*
X141166321Y-98276493D01*
X141239308Y-98501121D01*
X141319044Y-98657610D01*
X141346532Y-98711558D01*
X141485358Y-98902635D01*
X141652365Y-99069642D01*
X141687002Y-99094808D01*
X141729667Y-99150138D01*
X141735646Y-99219751D01*
X141703040Y-99281546D01*
X141687005Y-99295440D01*
X141669240Y-99308347D01*
X141652363Y-99320609D01*
X141485360Y-99487612D01*
X141485360Y-99487613D01*
X141485358Y-99487615D01*
X141470629Y-99507888D01*
X141346532Y-99678691D01*
X141239308Y-99889128D01*
X141166321Y-100113756D01*
X141129375Y-100347027D01*
X141129375Y-100583222D01*
X141166321Y-100816493D01*
X141239308Y-101041121D01*
X141312384Y-101184539D01*
X141346532Y-101251558D01*
X141485358Y-101442635D01*
X141652365Y-101609642D01*
X141687002Y-101634808D01*
X141729667Y-101690138D01*
X141735646Y-101759751D01*
X141703040Y-101821546D01*
X141687005Y-101835440D01*
X141669240Y-101848347D01*
X141652363Y-101860609D01*
X141485360Y-102027612D01*
X141485360Y-102027613D01*
X141485358Y-102027615D01*
X141462911Y-102058511D01*
X141346532Y-102218691D01*
X141239308Y-102429128D01*
X141166321Y-102653756D01*
X141129375Y-102887027D01*
X141129375Y-103123222D01*
X141166321Y-103356493D01*
X141239308Y-103581121D01*
X141317712Y-103734996D01*
X141346532Y-103791558D01*
X141485358Y-103982635D01*
X141652365Y-104149642D01*
X141687002Y-104174808D01*
X141729667Y-104230138D01*
X141735646Y-104299751D01*
X141703040Y-104361546D01*
X141687005Y-104375440D01*
X141669240Y-104388347D01*
X141652363Y-104400609D01*
X141485360Y-104567612D01*
X141485360Y-104567613D01*
X141485358Y-104567615D01*
X141470629Y-104587888D01*
X141346532Y-104758691D01*
X141239308Y-104969128D01*
X141166321Y-105193756D01*
X141129375Y-105427027D01*
X141129375Y-105663222D01*
X141166321Y-105896493D01*
X141239308Y-106121121D01*
X141346532Y-106331558D01*
X141485358Y-106522635D01*
X141485360Y-106522637D01*
X141650542Y-106687819D01*
X141684027Y-106749142D01*
X141679043Y-106818834D01*
X141637171Y-106874767D01*
X141571707Y-106899184D01*
X141562861Y-106899500D01*
X113586611Y-106899500D01*
X113413389Y-106899500D01*
X113327844Y-106913049D01*
X113242298Y-106926598D01*
X113077549Y-106980128D01*
X112923211Y-107058768D01*
X112855984Y-107107612D01*
X112783072Y-107160586D01*
X112783070Y-107160588D01*
X112783069Y-107160588D01*
X110705477Y-109238181D01*
X110644154Y-109271666D01*
X110617796Y-109274500D01*
X84382204Y-109274500D01*
X84315165Y-109254815D01*
X84294523Y-109238181D01*
X82636819Y-107580477D01*
X82603334Y-107519154D01*
X82600500Y-107492796D01*
X82600500Y-105706204D01*
X82620185Y-105639165D01*
X82672989Y-105593410D01*
X82742147Y-105583466D01*
X82805703Y-105612491D01*
X82812181Y-105618523D01*
X84533072Y-107339414D01*
X84673212Y-107441232D01*
X84827555Y-107519873D01*
X84992299Y-107573402D01*
X85163389Y-107600500D01*
X85336611Y-107600500D01*
X92015488Y-107600500D01*
X92071779Y-107614014D01*
X92179235Y-107668765D01*
X92250776Y-107705218D01*
X92250778Y-107705218D01*
X92250781Y-107705220D01*
X92338606Y-107733756D01*
X92445465Y-107768477D01*
X92521230Y-107780477D01*
X92647648Y-107800500D01*
X92647649Y-107800500D01*
X92852351Y-107800500D01*
X92852352Y-107800500D01*
X93054534Y-107768477D01*
X93249219Y-107705220D01*
X93431610Y-107612287D01*
X93559798Y-107519154D01*
X93597213Y-107491971D01*
X93597215Y-107491968D01*
X93597219Y-107491966D01*
X93741966Y-107347219D01*
X93741968Y-107347215D01*
X93741971Y-107347213D01*
X93794732Y-107274590D01*
X93862287Y-107181610D01*
X93955220Y-106999219D01*
X94018477Y-106804534D01*
X94050500Y-106602352D01*
X94050500Y-106397648D01*
X94018477Y-106195466D01*
X93955220Y-106000781D01*
X93955218Y-106000778D01*
X93955218Y-106000776D01*
X93921503Y-105934607D01*
X93862287Y-105818390D01*
X93854556Y-105807749D01*
X93741971Y-105652786D01*
X93597213Y-105508028D01*
X93431613Y-105387715D01*
X93431612Y-105387714D01*
X93431610Y-105387713D01*
X93374653Y-105358691D01*
X93249223Y-105294781D01*
X93054534Y-105231522D01*
X92870977Y-105202450D01*
X92852352Y-105199500D01*
X92647648Y-105199500D01*
X92629023Y-105202450D01*
X92445465Y-105231522D01*
X92250776Y-105294781D01*
X92133899Y-105354334D01*
X92071779Y-105385985D01*
X92015488Y-105399500D01*
X88074277Y-105399500D01*
X88007238Y-105379815D01*
X87961483Y-105327011D01*
X87951539Y-105257853D01*
X87980564Y-105194297D01*
X88035954Y-105157570D01*
X88041444Y-105155787D01*
X88239263Y-105054993D01*
X88352383Y-104972806D01*
X88418189Y-104949327D01*
X88425268Y-104949125D01*
X105145170Y-104949125D01*
X105212209Y-104968810D01*
X105257964Y-105021614D01*
X105267908Y-105090772D01*
X105238883Y-105154328D01*
X105232850Y-105160807D01*
X105191206Y-105202450D01*
X105141845Y-105232699D01*
X104950776Y-105294781D01*
X104768386Y-105387715D01*
X104602786Y-105508028D01*
X104458028Y-105652786D01*
X104337715Y-105818386D01*
X104244781Y-106000776D01*
X104181522Y-106195465D01*
X104149500Y-106397648D01*
X104149500Y-106602351D01*
X104181522Y-106804534D01*
X104244781Y-106999223D01*
X104308691Y-107124653D01*
X104336226Y-107178692D01*
X104337715Y-107181613D01*
X104458028Y-107347213D01*
X104602786Y-107491971D01*
X104724607Y-107580477D01*
X104768390Y-107612287D01*
X104884607Y-107671503D01*
X104950776Y-107705218D01*
X104950778Y-107705218D01*
X104950781Y-107705220D01*
X105038606Y-107733756D01*
X105145465Y-107768477D01*
X105221230Y-107780477D01*
X105347648Y-107800500D01*
X105347649Y-107800500D01*
X105552351Y-107800500D01*
X105552352Y-107800500D01*
X105754534Y-107768477D01*
X105949219Y-107705220D01*
X106131610Y-107612287D01*
X106259798Y-107519154D01*
X106297213Y-107491971D01*
X106297215Y-107491968D01*
X106297219Y-107491966D01*
X106441966Y-107347219D01*
X106441968Y-107347215D01*
X106441971Y-107347213D01*
X106494732Y-107274590D01*
X106562287Y-107181610D01*
X106655220Y-106999219D01*
X106717301Y-106808150D01*
X106747549Y-106758791D01*
X108520898Y-104985444D01*
X108582221Y-104951959D01*
X108608579Y-104949125D01*
X110697985Y-104949125D01*
X110697986Y-104949125D01*
X110869076Y-104922027D01*
X111033820Y-104868498D01*
X111188163Y-104789857D01*
X111328303Y-104688039D01*
X111978666Y-104037674D01*
X112028025Y-104007426D01*
X112219094Y-103945345D01*
X112401485Y-103852412D01*
X112530357Y-103758782D01*
X112567088Y-103732096D01*
X112567090Y-103732093D01*
X112567094Y-103732091D01*
X112711841Y-103587344D01*
X112711843Y-103587340D01*
X112711846Y-103587338D01*
X112764607Y-103514715D01*
X112832162Y-103421735D01*
X112925095Y-103239344D01*
X112988352Y-103044659D01*
X113020375Y-102842477D01*
X113020375Y-102637773D01*
X113009498Y-102569101D01*
X112988352Y-102435590D01*
X112925093Y-102240901D01*
X112900815Y-102193254D01*
X112873736Y-102140108D01*
X118039375Y-102140108D01*
X118039375Y-103340126D01*
X118039376Y-103340143D01*
X118049875Y-103442921D01*
X118049876Y-103442924D01*
X118095669Y-103581117D01*
X118105061Y-103609459D01*
X118197163Y-103758781D01*
X118321219Y-103882837D01*
X118470541Y-103974939D01*
X118637078Y-104030124D01*
X118739866Y-104040625D01*
X119939883Y-104040624D01*
X120042672Y-104030124D01*
X120209209Y-103974939D01*
X120358531Y-103882837D01*
X120389424Y-103851944D01*
X120450747Y-103818459D01*
X120477105Y-103815625D01*
X122700363Y-103815625D01*
X122756654Y-103829139D01*
X122822398Y-103862637D01*
X122935651Y-103920343D01*
X122935653Y-103920343D01*
X122935656Y-103920345D01*
X123012592Y-103945343D01*
X123130340Y-103983602D01*
X123231432Y-103999613D01*
X123332523Y-104015625D01*
X123332524Y-104015625D01*
X123537226Y-104015625D01*
X123537227Y-104015625D01*
X123739409Y-103983602D01*
X123934094Y-103920345D01*
X124116485Y-103827412D01*
X124243686Y-103734996D01*
X124282088Y-103707096D01*
X124282090Y-103707093D01*
X124282094Y-103707091D01*
X124426841Y-103562344D01*
X124426843Y-103562340D01*
X124426846Y-103562338D01*
X124528996Y-103421738D01*
X124547162Y-103396735D01*
X124640095Y-103214344D01*
X124703352Y-103019659D01*
X124735375Y-102817477D01*
X124735375Y-102612773D01*
X124724312Y-102542922D01*
X124703352Y-102410590D01*
X124640093Y-102215901D01*
X124580371Y-102098692D01*
X124547162Y-102033515D01*
X124539431Y-102022874D01*
X124426846Y-101867911D01*
X124282088Y-101723153D01*
X124116488Y-101602840D01*
X124116487Y-101602839D01*
X124116485Y-101602838D01*
X124052308Y-101570138D01*
X123934098Y-101509906D01*
X123739409Y-101446647D01*
X123561863Y-101418527D01*
X123537227Y-101414625D01*
X123332523Y-101414625D01*
X123308204Y-101418476D01*
X123130340Y-101446647D01*
X122935651Y-101509906D01*
X122818774Y-101569459D01*
X122756654Y-101601110D01*
X122700363Y-101614625D01*
X120421602Y-101614625D01*
X120356506Y-101596164D01*
X120247137Y-101528705D01*
X120209211Y-101505312D01*
X120209206Y-101505310D01*
X120161914Y-101489639D01*
X120042672Y-101450126D01*
X120042670Y-101450125D01*
X119939885Y-101439625D01*
X118739873Y-101439625D01*
X118739856Y-101439626D01*
X118637078Y-101450125D01*
X118637075Y-101450126D01*
X118470543Y-101505310D01*
X118470538Y-101505312D01*
X118321217Y-101597414D01*
X118197164Y-101721467D01*
X118105062Y-101870788D01*
X118105061Y-101870791D01*
X118049876Y-102037328D01*
X118049876Y-102037329D01*
X118049875Y-102037329D01*
X118039375Y-102140108D01*
X112873736Y-102140108D01*
X112852633Y-102098692D01*
X112832162Y-102058515D01*
X112832160Y-102058512D01*
X112832159Y-102058510D01*
X112711846Y-101892911D01*
X112567088Y-101748153D01*
X112401489Y-101627840D01*
X112365769Y-101609640D01*
X112317380Y-101584984D01*
X112266585Y-101537010D01*
X112249790Y-101469189D01*
X112272327Y-101403055D01*
X112327042Y-101359603D01*
X112373676Y-101350500D01*
X113586610Y-101350500D01*
X113586611Y-101350500D01*
X113757701Y-101323402D01*
X113922445Y-101269873D01*
X114076788Y-101191232D01*
X114216928Y-101089414D01*
X115839414Y-99466928D01*
X115941232Y-99326788D01*
X116019873Y-99172446D01*
X116073402Y-99007701D01*
X116100500Y-98836611D01*
X116100500Y-98663390D01*
X116100500Y-94615108D01*
X118039375Y-94615108D01*
X118039375Y-95815126D01*
X118039376Y-95815143D01*
X118049875Y-95917921D01*
X118049876Y-95917924D01*
X118105060Y-96084456D01*
X118105062Y-96084461D01*
X118125512Y-96117616D01*
X118197163Y-96233781D01*
X118321219Y-96357837D01*
X118470541Y-96449939D01*
X118637078Y-96505124D01*
X118739866Y-96515625D01*
X119939883Y-96515624D01*
X120042672Y-96505124D01*
X120209209Y-96449939D01*
X120358531Y-96357837D01*
X120364424Y-96351944D01*
X120425747Y-96318459D01*
X120452105Y-96315625D01*
X122927671Y-96315625D01*
X122994710Y-96335310D01*
X123015352Y-96351944D01*
X126852822Y-100189414D01*
X126992962Y-100291232D01*
X127038581Y-100314476D01*
X127147299Y-100369871D01*
X127147301Y-100369871D01*
X127147304Y-100369873D01*
X127231340Y-100397178D01*
X127312049Y-100423402D01*
X127483139Y-100450500D01*
X131015488Y-100450500D01*
X131071779Y-100464014D01*
X131169325Y-100513716D01*
X131250776Y-100555218D01*
X131250778Y-100555218D01*
X131250781Y-100555220D01*
X131294469Y-100569415D01*
X131445465Y-100618477D01*
X131546557Y-100634488D01*
X131647648Y-100650500D01*
X131647649Y-100650500D01*
X131852351Y-100650500D01*
X131852352Y-100650500D01*
X132054534Y-100618477D01*
X132249219Y-100555220D01*
X132431610Y-100462287D01*
X132558811Y-100369871D01*
X132597213Y-100341971D01*
X132597215Y-100341968D01*
X132597219Y-100341966D01*
X132741966Y-100197219D01*
X132741968Y-100197215D01*
X132741971Y-100197213D01*
X132802605Y-100113756D01*
X132862287Y-100031610D01*
X132955220Y-99849219D01*
X133018477Y-99654534D01*
X133050500Y-99452352D01*
X133050500Y-99247648D01*
X133043050Y-99200610D01*
X133018477Y-99045465D01*
X132971090Y-98899625D01*
X132955220Y-98850781D01*
X132955218Y-98850778D01*
X132955218Y-98850776D01*
X132884282Y-98711558D01*
X132862287Y-98668390D01*
X132854455Y-98657610D01*
X132741971Y-98502786D01*
X132597213Y-98358028D01*
X132431613Y-98237715D01*
X132431612Y-98237714D01*
X132431610Y-98237713D01*
X132374653Y-98208691D01*
X132249223Y-98144781D01*
X132054534Y-98081522D01*
X131879995Y-98053878D01*
X131852352Y-98049500D01*
X131647648Y-98049500D01*
X131623329Y-98053351D01*
X131445465Y-98081522D01*
X131250776Y-98144781D01*
X131133899Y-98204334D01*
X131071779Y-98235985D01*
X131015488Y-98249500D01*
X128076954Y-98249500D01*
X128009915Y-98229815D01*
X127989273Y-98213181D01*
X124151805Y-94375713D01*
X124151803Y-94375711D01*
X124011663Y-94273893D01*
X123857320Y-94195252D01*
X123692576Y-94141723D01*
X123692574Y-94141722D01*
X123692573Y-94141722D01*
X123559242Y-94120605D01*
X123521486Y-94114625D01*
X123521485Y-94114625D01*
X120452105Y-94114625D01*
X120385066Y-94094940D01*
X120364424Y-94078306D01*
X120358532Y-94072414D01*
X120358531Y-94072413D01*
X120253510Y-94007636D01*
X120209211Y-93980312D01*
X120209206Y-93980310D01*
X120163939Y-93965310D01*
X120042672Y-93925126D01*
X120042670Y-93925125D01*
X119939885Y-93914625D01*
X118739873Y-93914625D01*
X118739856Y-93914626D01*
X118637078Y-93925125D01*
X118637075Y-93925126D01*
X118470543Y-93980310D01*
X118470538Y-93980312D01*
X118321217Y-94072414D01*
X118197164Y-94196467D01*
X118105062Y-94345788D01*
X118105061Y-94345791D01*
X118049876Y-94512328D01*
X118049876Y-94512329D01*
X118049875Y-94512329D01*
X118039375Y-94615108D01*
X116100500Y-94615108D01*
X116100500Y-93913389D01*
X116094211Y-93873680D01*
X116073402Y-93742298D01*
X116058033Y-93694999D01*
X116048967Y-93667096D01*
X116019873Y-93577554D01*
X116019871Y-93577551D01*
X116019871Y-93577549D01*
X115941231Y-93423211D01*
X115939710Y-93421117D01*
X115839414Y-93283072D01*
X114216928Y-91660586D01*
X114076788Y-91558768D01*
X113922445Y-91480127D01*
X113757701Y-91426598D01*
X113757699Y-91426597D01*
X113757698Y-91426597D01*
X113625283Y-91405625D01*
X113586611Y-91399500D01*
X113586610Y-91399500D01*
X112944375Y-91399500D01*
X112877336Y-91379815D01*
X112831581Y-91327011D01*
X112820375Y-91275500D01*
X112820375Y-88869652D01*
X112840060Y-88802613D01*
X112844057Y-88796767D01*
X112888885Y-88735064D01*
X112942162Y-88661735D01*
X113035095Y-88479344D01*
X113098352Y-88284659D01*
X113130375Y-88082477D01*
X113130375Y-87877773D01*
X113098352Y-87675591D01*
X113096493Y-87669871D01*
X113051940Y-87532749D01*
X113035095Y-87480906D01*
X113035093Y-87480903D01*
X113035093Y-87480901D01*
X112995021Y-87402257D01*
X112942162Y-87298515D01*
X112934431Y-87287874D01*
X112821846Y-87132911D01*
X112677094Y-86988159D01*
X112630813Y-86954534D01*
X112583422Y-86920103D01*
X112540757Y-86864774D01*
X112534778Y-86795161D01*
X112567383Y-86733365D01*
X112617301Y-86702080D01*
X112699209Y-86674939D01*
X112848531Y-86582837D01*
X112972587Y-86458781D01*
X113064689Y-86309459D01*
X113119874Y-86142922D01*
X113130375Y-86040134D01*
X113130374Y-84840117D01*
X113124432Y-84781953D01*
X113119874Y-84737328D01*
X113119873Y-84737325D01*
X113075859Y-84604500D01*
X113064689Y-84570791D01*
X112972587Y-84421469D01*
X112848531Y-84297413D01*
X112699209Y-84205311D01*
X112532672Y-84150126D01*
X112532670Y-84150125D01*
X112429885Y-84139625D01*
X111229873Y-84139625D01*
X111229856Y-84139626D01*
X111127078Y-84150125D01*
X111127075Y-84150126D01*
X110960543Y-84205310D01*
X110960538Y-84205312D01*
X110811217Y-84297414D01*
X110805326Y-84303306D01*
X110744003Y-84336791D01*
X110717645Y-84339625D01*
X108170323Y-84339625D01*
X108114028Y-84326110D01*
X107984098Y-84259906D01*
X107789409Y-84196647D01*
X107614870Y-84169003D01*
X107587227Y-84164625D01*
X107382523Y-84164625D01*
X107358204Y-84168476D01*
X107180340Y-84196647D01*
X106985651Y-84259906D01*
X106803261Y-84352840D01*
X106637661Y-84473153D01*
X106492903Y-84617911D01*
X106372590Y-84783511D01*
X106279656Y-84965901D01*
X106216397Y-85160590D01*
X106184375Y-85362773D01*
X106184375Y-85567476D01*
X106216397Y-85769659D01*
X106279656Y-85964348D01*
X106337336Y-86077549D01*
X106370645Y-86142922D01*
X106372590Y-86146738D01*
X106492903Y-86312338D01*
X106637661Y-86457096D01*
X106779726Y-86560310D01*
X106803265Y-86577412D01*
X106897158Y-86625253D01*
X106985651Y-86670343D01*
X106985653Y-86670343D01*
X106985656Y-86670345D01*
X107083323Y-86702079D01*
X107180340Y-86733602D01*
X107281432Y-86749613D01*
X107382523Y-86765625D01*
X107382524Y-86765625D01*
X107587226Y-86765625D01*
X107587227Y-86765625D01*
X107789409Y-86733602D01*
X107984094Y-86670345D01*
X108166485Y-86577412D01*
X108168802Y-86575728D01*
X108184522Y-86564308D01*
X108250328Y-86540827D01*
X108257408Y-86540625D01*
X110717645Y-86540625D01*
X110784684Y-86560310D01*
X110805326Y-86576944D01*
X110811219Y-86582837D01*
X110960541Y-86674939D01*
X111042445Y-86702079D01*
X111099890Y-86741852D01*
X111126713Y-86806368D01*
X111114398Y-86875143D01*
X111076326Y-86920103D01*
X110982662Y-86988153D01*
X110982657Y-86988157D01*
X110837903Y-87132911D01*
X110717590Y-87298510D01*
X110697151Y-87338625D01*
X110646037Y-87438943D01*
X110645284Y-87440420D01*
X110597309Y-87491216D01*
X110534799Y-87508125D01*
X100347579Y-87508125D01*
X100280540Y-87488440D01*
X100234785Y-87435636D01*
X100224841Y-87366478D01*
X100253866Y-87302922D01*
X100259898Y-87296444D01*
X104954398Y-82601944D01*
X105015721Y-82568459D01*
X105042079Y-82565625D01*
X110081485Y-82565625D01*
X110081486Y-82565625D01*
X110252576Y-82538527D01*
X110417320Y-82484998D01*
X110571663Y-82406357D01*
X110711803Y-82304539D01*
X113284414Y-79731928D01*
X113386232Y-79591788D01*
X113464873Y-79437445D01*
X113518402Y-79272701D01*
X113545500Y-79101611D01*
X113545500Y-78928389D01*
X113545500Y-75999513D01*
X113559015Y-75943218D01*
X113650218Y-75764223D01*
X113650218Y-75764222D01*
X113650220Y-75764219D01*
X113713477Y-75569534D01*
X113745500Y-75367352D01*
X113745500Y-75162648D01*
X113729752Y-75063222D01*
X113713477Y-74960465D01*
X113671981Y-74832755D01*
X113650220Y-74765781D01*
X113650218Y-74765778D01*
X113650218Y-74765776D01*
X113602505Y-74672136D01*
X113557287Y-74583390D01*
X113512924Y-74522329D01*
X113436971Y-74417786D01*
X113292219Y-74273034D01*
X113255501Y-74246357D01*
X113198547Y-74204978D01*
X113155882Y-74149649D01*
X113149903Y-74080036D01*
X113182508Y-74018240D01*
X113232426Y-73986955D01*
X113314334Y-73959814D01*
X113463656Y-73867712D01*
X113587712Y-73743656D01*
X113679814Y-73594334D01*
X113734999Y-73427797D01*
X113745500Y-73325009D01*
X113745499Y-72124992D01*
X113734999Y-72022203D01*
X113679814Y-71855666D01*
X113587712Y-71706344D01*
X113463656Y-71582288D01*
X113341925Y-71507204D01*
X113314336Y-71490187D01*
X113314331Y-71490185D01*
X113312862Y-71489698D01*
X113147797Y-71435001D01*
X113147795Y-71435000D01*
X113045010Y-71424500D01*
X111844998Y-71424500D01*
X111844981Y-71424501D01*
X111742203Y-71435000D01*
X111742200Y-71435001D01*
X111575668Y-71490185D01*
X111575663Y-71490187D01*
X111426342Y-71582289D01*
X111420451Y-71588181D01*
X111359128Y-71621666D01*
X111332770Y-71624500D01*
X108861610Y-71624500D01*
X108688389Y-71624500D01*
X108602844Y-71638049D01*
X108517298Y-71651598D01*
X108352549Y-71705128D01*
X108198211Y-71783768D01*
X108118256Y-71841859D01*
X108058072Y-71885586D01*
X108058070Y-71885588D01*
X108058069Y-71885588D01*
X106645463Y-73298194D01*
X106645463Y-73298195D01*
X106645461Y-73298197D01*
X106637781Y-73308768D01*
X106543643Y-73438336D01*
X106465003Y-73592677D01*
X106411472Y-73757427D01*
X106384375Y-73928514D01*
X106384375Y-76480612D01*
X106370860Y-76536907D01*
X106279656Y-76715901D01*
X106216397Y-76910590D01*
X106184375Y-77112773D01*
X106184375Y-77317476D01*
X106216397Y-77519659D01*
X106279656Y-77714348D01*
X106372590Y-77896738D01*
X106492903Y-78062338D01*
X106637661Y-78207096D01*
X106787041Y-78315625D01*
X106803265Y-78327412D01*
X106919482Y-78386628D01*
X106985651Y-78420343D01*
X106985653Y-78420343D01*
X106985656Y-78420345D01*
X107090012Y-78454252D01*
X107180340Y-78483602D01*
X107281432Y-78499613D01*
X107382523Y-78515625D01*
X107382524Y-78515625D01*
X107587226Y-78515625D01*
X107587227Y-78515625D01*
X107789409Y-78483602D01*
X107984094Y-78420345D01*
X108166485Y-78327412D01*
X108263347Y-78257038D01*
X108332088Y-78207096D01*
X108332090Y-78207093D01*
X108332094Y-78207091D01*
X108476841Y-78062344D01*
X108476843Y-78062340D01*
X108476846Y-78062338D01*
X108536575Y-77980127D01*
X108597162Y-77896735D01*
X108690095Y-77714344D01*
X108753352Y-77519659D01*
X108785375Y-77317477D01*
X108785375Y-77112773D01*
X108765058Y-76984496D01*
X108753352Y-76910590D01*
X108712986Y-76786357D01*
X108690095Y-76715906D01*
X108690093Y-76715903D01*
X108690093Y-76715901D01*
X108598890Y-76536907D01*
X108585375Y-76480612D01*
X108585375Y-74522329D01*
X108605060Y-74455290D01*
X108621694Y-74434648D01*
X109194523Y-73861819D01*
X109255846Y-73828334D01*
X109282204Y-73825500D01*
X111332770Y-73825500D01*
X111399809Y-73845185D01*
X111420451Y-73861819D01*
X111426344Y-73867712D01*
X111575666Y-73959814D01*
X111657570Y-73986954D01*
X111715015Y-74026727D01*
X111741838Y-74091243D01*
X111729523Y-74160018D01*
X111691451Y-74204978D01*
X111597787Y-74273028D01*
X111597782Y-74273032D01*
X111453028Y-74417786D01*
X111332715Y-74583386D01*
X111239781Y-74765776D01*
X111176522Y-74960465D01*
X111144500Y-75162648D01*
X111144500Y-75367351D01*
X111176522Y-75569534D01*
X111239781Y-75764223D01*
X111330985Y-75943218D01*
X111344500Y-75999513D01*
X111344500Y-78507796D01*
X111324815Y-78574835D01*
X111308181Y-78595477D01*
X109575352Y-80328306D01*
X109514029Y-80361791D01*
X109487671Y-80364625D01*
X105042079Y-80364625D01*
X104975040Y-80344940D01*
X104954398Y-80328306D01*
X101886819Y-77260727D01*
X101853334Y-77199404D01*
X101850500Y-77173046D01*
X101850500Y-74413389D01*
X101844978Y-74378527D01*
X101823402Y-74242299D01*
X101769873Y-74077555D01*
X101691232Y-73923212D01*
X101589414Y-73783072D01*
X101466928Y-73660586D01*
X95716928Y-67910586D01*
X95576788Y-67808768D01*
X95422445Y-67730127D01*
X95257701Y-67676598D01*
X95257699Y-67676597D01*
X95257698Y-67676597D01*
X95116784Y-67654279D01*
X95086611Y-67649500D01*
X95086610Y-67649500D01*
X92826954Y-67649500D01*
X92759915Y-67629815D01*
X92739273Y-67613181D01*
X89971805Y-64845713D01*
X89971803Y-64845711D01*
X89831663Y-64743893D01*
X89677320Y-64665252D01*
X89512576Y-64611723D01*
X89512574Y-64611722D01*
X89512573Y-64611722D01*
X89381146Y-64590906D01*
X89341486Y-64584625D01*
X89341485Y-64584625D01*
X88337868Y-64584625D01*
X88270829Y-64564940D01*
X88264983Y-64560943D01*
X88239266Y-64542259D01*
X88239265Y-64542258D01*
X88239263Y-64542257D01*
X88166674Y-64505271D01*
X88041448Y-64441464D01*
X87830293Y-64372855D01*
X87611014Y-64338125D01*
X87611009Y-64338125D01*
X87388991Y-64338125D01*
X87388986Y-64338125D01*
X87169706Y-64372855D01*
X86958551Y-64441464D01*
X86760733Y-64542259D01*
X86581127Y-64672749D01*
X86581122Y-64672753D01*
X86424128Y-64829747D01*
X86424124Y-64829752D01*
X86293634Y-65009358D01*
X86192839Y-65207176D01*
X86124230Y-65418331D01*
X86089500Y-65637610D01*
X86089500Y-65859639D01*
X86124230Y-66078918D01*
X86192839Y-66290073D01*
X86234567Y-66371967D01*
X86283302Y-66467615D01*
X86293634Y-66487891D01*
X86424124Y-66667497D01*
X86424128Y-66667502D01*
X86581122Y-66824496D01*
X86581127Y-66824500D01*
X86710241Y-66918307D01*
X86727417Y-66940581D01*
X86747025Y-66960757D01*
X86748468Y-66967881D01*
X86752907Y-66973637D01*
X86755314Y-67001664D01*
X86760901Y-67029235D01*
X86758264Y-67036008D01*
X86758886Y-67043250D01*
X86745759Y-67068126D01*
X86735553Y-67094344D01*
X86728109Y-67101577D01*
X86726280Y-67105045D01*
X86710242Y-67118942D01*
X86647618Y-67164442D01*
X86581812Y-67187923D01*
X86574732Y-67188125D01*
X85624763Y-67188125D01*
X85597665Y-67192416D01*
X85597664Y-67192415D01*
X85453680Y-67215221D01*
X85453678Y-67215221D01*
X85453675Y-67215222D01*
X85371302Y-67241987D01*
X85288925Y-67268753D01*
X85134586Y-67347393D01*
X85046027Y-67411736D01*
X85046026Y-67411737D01*
X84994447Y-67449210D01*
X82812181Y-69631477D01*
X82750858Y-69664962D01*
X82681166Y-69659978D01*
X82625233Y-69618106D01*
X82600816Y-69552642D01*
X82600500Y-69543796D01*
X82600500Y-65257204D01*
X82620185Y-65190165D01*
X82636819Y-65169523D01*
X84669523Y-63136819D01*
X84730846Y-63103334D01*
X84757204Y-63100500D01*
X90992796Y-63100500D01*
X91059835Y-63120185D01*
X91080477Y-63136819D01*
X94402358Y-66458700D01*
X94542498Y-66560518D01*
X94615417Y-66597672D01*
X94696835Y-66639157D01*
X94696837Y-66639157D01*
X94696840Y-66639159D01*
X94861585Y-66692688D01*
X95032675Y-66719786D01*
X95205896Y-66719786D01*
X99758714Y-66719786D01*
X99825753Y-66739471D01*
X99846395Y-66756105D01*
X99937107Y-66846817D01*
X100117996Y-66978241D01*
X100215707Y-67028027D01*
X100317216Y-67079750D01*
X100317219Y-67079751D01*
X100384394Y-67101577D01*
X100529866Y-67148843D01*
X100750704Y-67183821D01*
X100750705Y-67183821D01*
X100974295Y-67183821D01*
X100974296Y-67183821D01*
X101195134Y-67148843D01*
X101407783Y-67079750D01*
X101607004Y-66978241D01*
X101787893Y-66846817D01*
X101822944Y-66811766D01*
X101884267Y-66778281D01*
X101953959Y-66783265D01*
X102009892Y-66825137D01*
X102034309Y-66890601D01*
X102034625Y-66899447D01*
X102034625Y-68221735D01*
X102048409Y-68308768D01*
X102061723Y-68392826D01*
X102115252Y-68557570D01*
X102193893Y-68711913D01*
X102295711Y-68852053D01*
X103533072Y-70089414D01*
X103673212Y-70191232D01*
X103722790Y-70216493D01*
X103827549Y-70269871D01*
X103827551Y-70269871D01*
X103827554Y-70269873D01*
X103992299Y-70323402D01*
X104163389Y-70350500D01*
X104336610Y-70350500D01*
X113492796Y-70350500D01*
X113559835Y-70370185D01*
X113580477Y-70386819D01*
X114613181Y-71419523D01*
X114646666Y-71480846D01*
X114649500Y-71507204D01*
X114649500Y-76586610D01*
X114672444Y-76731477D01*
X114676598Y-76757701D01*
X114730127Y-76922445D01*
X114808768Y-77076788D01*
X114910586Y-77216928D01*
X116660586Y-78966928D01*
X116783072Y-79089414D01*
X116923212Y-79191232D01*
X117077555Y-79269873D01*
X117242299Y-79323402D01*
X117413389Y-79350500D01*
X117413390Y-79350500D01*
X122836610Y-79350500D01*
X122836611Y-79350500D01*
X123007701Y-79323402D01*
X123172445Y-79269873D01*
X123326788Y-79191232D01*
X123466928Y-79089414D01*
X125669523Y-76886819D01*
X125730846Y-76853334D01*
X125757204Y-76850500D01*
X131742796Y-76850500D01*
X131809835Y-76870185D01*
X131830477Y-76886819D01*
X134963181Y-80019523D01*
X134996666Y-80080846D01*
X134999500Y-80107204D01*
X134999500Y-82265487D01*
X134985985Y-82321782D01*
X134894781Y-82500776D01*
X134831522Y-82695465D01*
X134799500Y-82897648D01*
X134799500Y-83102351D01*
X134831522Y-83304534D01*
X134894781Y-83499223D01*
X134946195Y-83600126D01*
X134981210Y-83668848D01*
X134987715Y-83681613D01*
X135108028Y-83847213D01*
X135252786Y-83991971D01*
X135374790Y-84080610D01*
X135418390Y-84112287D01*
X135497864Y-84152781D01*
X135600776Y-84205218D01*
X135600778Y-84205218D01*
X135600781Y-84205220D01*
X135692142Y-84234905D01*
X135795465Y-84268477D01*
X135896557Y-84284488D01*
X135997648Y-84300500D01*
X135997649Y-84300500D01*
X136202351Y-84300500D01*
X136202352Y-84300500D01*
X136404534Y-84268477D01*
X136599219Y-84205220D01*
X136781610Y-84112287D01*
X136878977Y-84041546D01*
X136947213Y-83991971D01*
X136947215Y-83991968D01*
X136947219Y-83991966D01*
X137091966Y-83847219D01*
X137091968Y-83847215D01*
X137091971Y-83847213D01*
X137144732Y-83774590D01*
X137212287Y-83681610D01*
X137305220Y-83499219D01*
X137368477Y-83304534D01*
X137400500Y-83102352D01*
X137400500Y-82897648D01*
X137368477Y-82695466D01*
X137305220Y-82500781D01*
X137305218Y-82500778D01*
X137305218Y-82500776D01*
X137232950Y-82358943D01*
X137214014Y-82321780D01*
X137200500Y-82265487D01*
X137200500Y-72734513D01*
X137214015Y-72678218D01*
X137305220Y-72499219D01*
X137367301Y-72308150D01*
X137397549Y-72258791D01*
X139839414Y-69816928D01*
X139941232Y-69676788D01*
X140019873Y-69522446D01*
X140073402Y-69357701D01*
X140100500Y-69186611D01*
X140100500Y-69013390D01*
X140100500Y-65007204D01*
X140120185Y-64940165D01*
X140136819Y-64919523D01*
X140825496Y-64230846D01*
X141516279Y-63540062D01*
X141577600Y-63506579D01*
X141647292Y-63511563D01*
X141676842Y-63527426D01*
X141687000Y-63534806D01*
X141729667Y-63590135D01*
X141735647Y-63659749D01*
X141703042Y-63721544D01*
X141687005Y-63735440D01*
X141669240Y-63748347D01*
X141652363Y-63760609D01*
X141485360Y-63927612D01*
X141485360Y-63927613D01*
X141485358Y-63927615D01*
X141433718Y-63998691D01*
X141346532Y-64118691D01*
X141239308Y-64329128D01*
X141166321Y-64553756D01*
X141129375Y-64787027D01*
X141129375Y-65023222D01*
X141166321Y-65256493D01*
X141239308Y-65481121D01*
X141319044Y-65637610D01*
X141346532Y-65691558D01*
X141485358Y-65882635D01*
X141652365Y-66049642D01*
X141687002Y-66074808D01*
X141729667Y-66130138D01*
X141735646Y-66199751D01*
X141703040Y-66261546D01*
X141687005Y-66275440D01*
X141669240Y-66288347D01*
X141652363Y-66300609D01*
X141485360Y-66467612D01*
X141485360Y-66467613D01*
X141485358Y-66467615D01*
X141449251Y-66517312D01*
X141346532Y-66658691D01*
X141239308Y-66869128D01*
X141166321Y-67093756D01*
X141129375Y-67327027D01*
X141129375Y-67563222D01*
X141166321Y-67796493D01*
X141239308Y-68021121D01*
X141312384Y-68164539D01*
X141346532Y-68231558D01*
X141485358Y-68422635D01*
X141652365Y-68589642D01*
X141687002Y-68614808D01*
X141729667Y-68670138D01*
X141735646Y-68739751D01*
X141703040Y-68801546D01*
X141687005Y-68815440D01*
X141669240Y-68828347D01*
X141652363Y-68840609D01*
X141485360Y-69007612D01*
X141485360Y-69007613D01*
X141485358Y-69007615D01*
X141443606Y-69065082D01*
X141346532Y-69198691D01*
X141239308Y-69409128D01*
X141166321Y-69633756D01*
X141129375Y-69867027D01*
X141129375Y-70103222D01*
X141166321Y-70336493D01*
X141239308Y-70561121D01*
X141311319Y-70702449D01*
X141346532Y-70771558D01*
X141485358Y-70962635D01*
X141652365Y-71129642D01*
X141687002Y-71154808D01*
X141729667Y-71210138D01*
X141735646Y-71279751D01*
X141703040Y-71341546D01*
X141687005Y-71355440D01*
X141669240Y-71368347D01*
X141652363Y-71380609D01*
X141485360Y-71547612D01*
X141485360Y-71547613D01*
X141485358Y-71547615D01*
X141470629Y-71567888D01*
X141346532Y-71738691D01*
X141239308Y-71949128D01*
X141166321Y-72173756D01*
X141129375Y-72407027D01*
X141129375Y-72643222D01*
X141166321Y-72876493D01*
X141239308Y-73101121D01*
X141339395Y-73297551D01*
X141346532Y-73311558D01*
X141485358Y-73502635D01*
X141652365Y-73669642D01*
X141687002Y-73694808D01*
X141729667Y-73750138D01*
X141735646Y-73819751D01*
X141703040Y-73881546D01*
X141687005Y-73895440D01*
X141669240Y-73908347D01*
X141652363Y-73920609D01*
X141485360Y-74087612D01*
X141485360Y-74087613D01*
X141485358Y-74087615D01*
X141444000Y-74144539D01*
X141346532Y-74278691D01*
X141239308Y-74489128D01*
X141166321Y-74713756D01*
X141129375Y-74947027D01*
X141129375Y-75183222D01*
X141166321Y-75416493D01*
X141239308Y-75641121D01*
X141312384Y-75784539D01*
X141346532Y-75851558D01*
X141485358Y-76042635D01*
X141652365Y-76209642D01*
X141687002Y-76234808D01*
X141729667Y-76290138D01*
X141735646Y-76359751D01*
X141703040Y-76421546D01*
X141687005Y-76435440D01*
X141672987Y-76445625D01*
X141652363Y-76460609D01*
X141485360Y-76627612D01*
X141485360Y-76627613D01*
X141485358Y-76627615D01*
X141444000Y-76684539D01*
X141346532Y-76818691D01*
X141239308Y-77029128D01*
X141166321Y-77253756D01*
X141129375Y-77487027D01*
X141129375Y-77723222D01*
X141166321Y-77956493D01*
X141239308Y-78181121D01*
X141346532Y-78391558D01*
X141485358Y-78582635D01*
X141652365Y-78749642D01*
X141687002Y-78774808D01*
X141729667Y-78830138D01*
X141735646Y-78899751D01*
X141703040Y-78961546D01*
X141687005Y-78975440D01*
X141669240Y-78988347D01*
X141652363Y-79000609D01*
X141485360Y-79167612D01*
X141485360Y-79167613D01*
X141485358Y-79167615D01*
X141433718Y-79238691D01*
X141346532Y-79358691D01*
X141239308Y-79569128D01*
X141166321Y-79793756D01*
X141129375Y-80027027D01*
X141129375Y-80263222D01*
X141166321Y-80496493D01*
X141239308Y-80721121D01*
X141319044Y-80877610D01*
X141346532Y-80931558D01*
X141485358Y-81122635D01*
X141652365Y-81289642D01*
X141687002Y-81314808D01*
X141702565Y-81334990D01*
X141721119Y-81352465D01*
X141723543Y-81362196D01*
X141729667Y-81370138D01*
X141731847Y-81395527D01*
X141738010Y-81420262D01*
X141734787Y-81429760D01*
X141735646Y-81439751D01*
X141723752Y-81462291D01*
X141715565Y-81486428D01*
X141705763Y-81496384D01*
X141703040Y-81501546D01*
X141691367Y-81512121D01*
X141689218Y-81513832D01*
X141652365Y-81540608D01*
X141639714Y-81553258D01*
X141634237Y-81557621D01*
X141608106Y-81568269D01*
X141583344Y-81581791D01*
X141571909Y-81583020D01*
X141569533Y-81583989D01*
X141567106Y-81583536D01*
X141556986Y-81584625D01*
X140556611Y-81584625D01*
X140383389Y-81584625D01*
X140297844Y-81598174D01*
X140212298Y-81611723D01*
X140047549Y-81665253D01*
X139893211Y-81743893D01*
X139845315Y-81778692D01*
X139753072Y-81845711D01*
X139753070Y-81845713D01*
X139753069Y-81845713D01*
X136085602Y-85513181D01*
X136024279Y-85546666D01*
X135997921Y-85549500D01*
X132484512Y-85549500D01*
X132428220Y-85535985D01*
X132349089Y-85495666D01*
X132249223Y-85444781D01*
X132054534Y-85381522D01*
X131879995Y-85353878D01*
X131852352Y-85349500D01*
X131647648Y-85349500D01*
X131623329Y-85353351D01*
X131445465Y-85381522D01*
X131250776Y-85444781D01*
X131068386Y-85537715D01*
X130902786Y-85658028D01*
X130758028Y-85802786D01*
X130637715Y-85968386D01*
X130544781Y-86150776D01*
X130481522Y-86345465D01*
X130449500Y-86547648D01*
X130449500Y-86752351D01*
X130481522Y-86954534D01*
X130544781Y-87149223D01*
X130608691Y-87274653D01*
X130618425Y-87293756D01*
X130637715Y-87331613D01*
X130758028Y-87497213D01*
X130902786Y-87641971D01*
X131052166Y-87750500D01*
X131068390Y-87762287D01*
X131184607Y-87821503D01*
X131250776Y-87855218D01*
X131250778Y-87855218D01*
X131250781Y-87855220D01*
X131294306Y-87869362D01*
X131445465Y-87918477D01*
X131546557Y-87934488D01*
X131647648Y-87950500D01*
X131647649Y-87950500D01*
X131852351Y-87950500D01*
X131852352Y-87950500D01*
X132054534Y-87918477D01*
X132249219Y-87855220D01*
X132428220Y-87764014D01*
X132484512Y-87750500D01*
X136591735Y-87750500D01*
X136591736Y-87750500D01*
X136762826Y-87723402D01*
X136927570Y-87669873D01*
X137081913Y-87591232D01*
X137222053Y-87489414D01*
X140339414Y-84372053D01*
X140889523Y-83821944D01*
X140950846Y-83788459D01*
X140977204Y-83785625D01*
X141556986Y-83785625D01*
X141579961Y-83792371D01*
X141603781Y-83794794D01*
X141616123Y-83802989D01*
X141624025Y-83805310D01*
X141634237Y-83812629D01*
X141639714Y-83816991D01*
X141652365Y-83829642D01*
X141689218Y-83856417D01*
X141691367Y-83858129D01*
X141709946Y-83884562D01*
X141729667Y-83910138D01*
X141729909Y-83912966D01*
X141731544Y-83915291D01*
X141732882Y-83947573D01*
X141735646Y-83979751D01*
X141734320Y-83982263D01*
X141734438Y-83985101D01*
X141718117Y-84012972D01*
X141703040Y-84041546D01*
X141699678Y-84044458D01*
X141699131Y-84045394D01*
X141697846Y-84046046D01*
X141687005Y-84055440D01*
X141682425Y-84058768D01*
X141652363Y-84080609D01*
X141485360Y-84247612D01*
X141485360Y-84247613D01*
X141485358Y-84247615D01*
X141470629Y-84267888D01*
X141346532Y-84438691D01*
X141239308Y-84649128D01*
X141166321Y-84873756D01*
X141129375Y-85107027D01*
X141129375Y-85343222D01*
X141166321Y-85576493D01*
X141239308Y-85801121D01*
X141301517Y-85923211D01*
X141346532Y-86011558D01*
X141485358Y-86202635D01*
X141652365Y-86369642D01*
X141687002Y-86394808D01*
X141729667Y-86450138D01*
X141735646Y-86519751D01*
X141703040Y-86581546D01*
X141687005Y-86595440D01*
X141669240Y-86608347D01*
X141652363Y-86620609D01*
X141485360Y-86787612D01*
X141485360Y-86787613D01*
X141485358Y-86787615D01*
X141470629Y-86807888D01*
X141346532Y-86978691D01*
X141239308Y-87189128D01*
X141166321Y-87413756D01*
X141129375Y-87647027D01*
X141129375Y-87883222D01*
X141166321Y-88116493D01*
X141239308Y-88341121D01*
X141309737Y-88479344D01*
X141346532Y-88551558D01*
X141485358Y-88742635D01*
X141652365Y-88909642D01*
X141687002Y-88934808D01*
X141702565Y-88954990D01*
X141721119Y-88972465D01*
X141723543Y-88982196D01*
X141729667Y-88990138D01*
X141731847Y-89015527D01*
X141738010Y-89040262D01*
X141734787Y-89049760D01*
X141735646Y-89059751D01*
X141723752Y-89082291D01*
X141715565Y-89106428D01*
X141705763Y-89116384D01*
X141703040Y-89121546D01*
X141691367Y-89132121D01*
X141689218Y-89133832D01*
X141652365Y-89160608D01*
X141639714Y-89173258D01*
X141634237Y-89177621D01*
X141608106Y-89188269D01*
X141583344Y-89201791D01*
X141571909Y-89203020D01*
X141569533Y-89203989D01*
X141567106Y-89203536D01*
X141556986Y-89204625D01*
X126562329Y-89204625D01*
X126495290Y-89184940D01*
X126474648Y-89168306D01*
X122769022Y-85462680D01*
X122735537Y-85401357D01*
X122740521Y-85331665D01*
X122769018Y-85287323D01*
X123806921Y-84249419D01*
X123856284Y-84219169D01*
X123899219Y-84205220D01*
X124081610Y-84112287D01*
X124178977Y-84041546D01*
X124247213Y-83991971D01*
X124247215Y-83991968D01*
X124247219Y-83991966D01*
X124391966Y-83847219D01*
X124391968Y-83847215D01*
X124391971Y-83847213D01*
X124444732Y-83774590D01*
X124512287Y-83681610D01*
X124605220Y-83499219D01*
X124668477Y-83304534D01*
X124700500Y-83102352D01*
X124700500Y-82897648D01*
X124668477Y-82695466D01*
X124605220Y-82500781D01*
X124605218Y-82500778D01*
X124605218Y-82500776D01*
X124549652Y-82391723D01*
X124512287Y-82318390D01*
X124468866Y-82258625D01*
X124391971Y-82152786D01*
X124247213Y-82008028D01*
X124081613Y-81887715D01*
X124081612Y-81887714D01*
X124081610Y-81887713D01*
X124024653Y-81858691D01*
X123899223Y-81794781D01*
X123704534Y-81731522D01*
X123529995Y-81703878D01*
X123502352Y-81699500D01*
X123297648Y-81699500D01*
X123273329Y-81703351D01*
X123095465Y-81731522D01*
X122900776Y-81794781D01*
X122718386Y-81887715D01*
X122552786Y-82008028D01*
X122408028Y-82152786D01*
X122287715Y-82318386D01*
X122194781Y-82500778D01*
X122131522Y-82695467D01*
X122115868Y-82794299D01*
X122085938Y-82857433D01*
X122081076Y-82862580D01*
X120640352Y-84303306D01*
X120579029Y-84336791D01*
X120552671Y-84339625D01*
X120184387Y-84339625D01*
X120128095Y-84326110D01*
X120013827Y-84267888D01*
X119949098Y-84234906D01*
X119754409Y-84171647D01*
X119579870Y-84144003D01*
X119552227Y-84139625D01*
X119347523Y-84139625D01*
X119323204Y-84143476D01*
X119145340Y-84171647D01*
X118950651Y-84234906D01*
X118768261Y-84327840D01*
X118602661Y-84448153D01*
X118457903Y-84592911D01*
X118337590Y-84758511D01*
X118244656Y-84940901D01*
X118181397Y-85135590D01*
X118150708Y-85329358D01*
X118149375Y-85337773D01*
X118149375Y-85542477D01*
X118150487Y-85549500D01*
X118181397Y-85744659D01*
X118244656Y-85939348D01*
X118296010Y-86040134D01*
X118336798Y-86120185D01*
X118337590Y-86121738D01*
X118457903Y-86287338D01*
X118602661Y-86432096D01*
X118749154Y-86538527D01*
X118768265Y-86552412D01*
X118852718Y-86595443D01*
X118950651Y-86645343D01*
X118950653Y-86645343D01*
X118950656Y-86645345D01*
X119019187Y-86667612D01*
X119145340Y-86708602D01*
X119246432Y-86724613D01*
X119347523Y-86740625D01*
X119347524Y-86740625D01*
X119552226Y-86740625D01*
X119552227Y-86740625D01*
X119754409Y-86708602D01*
X119949094Y-86645345D01*
X120128095Y-86554139D01*
X120184387Y-86540625D01*
X120682921Y-86540625D01*
X120749960Y-86560310D01*
X120770602Y-86576944D01*
X125338197Y-91144539D01*
X125478337Y-91246357D01*
X125632680Y-91324998D01*
X125797424Y-91378527D01*
X125968514Y-91405625D01*
X126141736Y-91405625D01*
X141556986Y-91405625D01*
X141579961Y-91412371D01*
X141603781Y-91414794D01*
X141616123Y-91422989D01*
X141624025Y-91425310D01*
X141634237Y-91432629D01*
X141639714Y-91436991D01*
X141652365Y-91449642D01*
X141689218Y-91476417D01*
X141691367Y-91478129D01*
X141709946Y-91504562D01*
X141729667Y-91530138D01*
X141729909Y-91532966D01*
X141731544Y-91535291D01*
X141732882Y-91567573D01*
X141735646Y-91599751D01*
X141734320Y-91602263D01*
X141734438Y-91605101D01*
X141718117Y-91632972D01*
X141703040Y-91661546D01*
X141699678Y-91664458D01*
X141699131Y-91665394D01*
X141697846Y-91666046D01*
X141687005Y-91675440D01*
X141669240Y-91688347D01*
X141652363Y-91700609D01*
X141652362Y-91700610D01*
X141644667Y-91708306D01*
X141583344Y-91741791D01*
X141556986Y-91744625D01*
X140741486Y-91744625D01*
X140568264Y-91744625D01*
X140528603Y-91750906D01*
X140397177Y-91771722D01*
X140232427Y-91825253D01*
X140078086Y-91903893D01*
X140017609Y-91947833D01*
X139937947Y-92005711D01*
X139937945Y-92005713D01*
X139937944Y-92005713D01*
X138660588Y-93283069D01*
X138660588Y-93283070D01*
X138660586Y-93283072D01*
X138647473Y-93301121D01*
X138558768Y-93423211D01*
X138480128Y-93577552D01*
X138426597Y-93742302D01*
X138399500Y-93913389D01*
X138399500Y-100492796D01*
X138379815Y-100559835D01*
X138363181Y-100580477D01*
X137365352Y-101578306D01*
X137304029Y-101611791D01*
X137277671Y-101614625D01*
X136869387Y-101614625D01*
X136813095Y-101601110D01*
X136733964Y-101560791D01*
X136634098Y-101509906D01*
X136439409Y-101446647D01*
X136261863Y-101418527D01*
X136237227Y-101414625D01*
X136032523Y-101414625D01*
X136008204Y-101418476D01*
X135830340Y-101446647D01*
X135635651Y-101509906D01*
X135453261Y-101602840D01*
X135287661Y-101723153D01*
X135142903Y-101867911D01*
X135022590Y-102033511D01*
X134929656Y-102215901D01*
X134866397Y-102410590D01*
X134834375Y-102612773D01*
X134834375Y-102817476D01*
X134866397Y-103019659D01*
X134929656Y-103214348D01*
X135022590Y-103396738D01*
X135142903Y-103562338D01*
X135287661Y-103707096D01*
X135437041Y-103815625D01*
X135453265Y-103827412D01*
X135562039Y-103882835D01*
X135635651Y-103920343D01*
X135635653Y-103920343D01*
X135635656Y-103920345D01*
X135712592Y-103945343D01*
X135830340Y-103983602D01*
X135931432Y-103999613D01*
X136032523Y-104015625D01*
X136032524Y-104015625D01*
X136237226Y-104015625D01*
X136237227Y-104015625D01*
X136439409Y-103983602D01*
X136634094Y-103920345D01*
X136813095Y-103829139D01*
X136869387Y-103815625D01*
X137871485Y-103815625D01*
X137871486Y-103815625D01*
X138042576Y-103788527D01*
X138207320Y-103734998D01*
X138361663Y-103656357D01*
X138501803Y-103554539D01*
X140339414Y-101716928D01*
X140441232Y-101576788D01*
X140519873Y-101422445D01*
X140573402Y-101257701D01*
X140600500Y-101086611D01*
X140600500Y-100913389D01*
X140600500Y-94507204D01*
X140620185Y-94440165D01*
X140636819Y-94419523D01*
X141074398Y-93981944D01*
X141135721Y-93948459D01*
X141162079Y-93945625D01*
X141556986Y-93945625D01*
X141624025Y-93965310D01*
X141644667Y-93981944D01*
X141652365Y-93989642D01*
X141843442Y-94128468D01*
X141942866Y-94179127D01*
X142053878Y-94235691D01*
X142053880Y-94235691D01*
X142053883Y-94235693D01*
X142171450Y-94273893D01*
X142278506Y-94308678D01*
X142511778Y-94345625D01*
X142511783Y-94345625D01*
X142747972Y-94345625D01*
X142981243Y-94308678D01*
X143205867Y-94235693D01*
X143416308Y-94128468D01*
X143607385Y-93989642D01*
X143774392Y-93822635D01*
X143913218Y-93631558D01*
X144020443Y-93421117D01*
X144093428Y-93196493D01*
X144112434Y-93076493D01*
X144130375Y-92963222D01*
X144130375Y-92727027D01*
X144093428Y-92493756D01*
X144059564Y-92389537D01*
X144020443Y-92269133D01*
X144020441Y-92269130D01*
X144020441Y-92269128D01*
X143929097Y-92089856D01*
X143913218Y-92058692D01*
X143774392Y-91867615D01*
X143607385Y-91700608D01*
X143572747Y-91675442D01*
X143530082Y-91620114D01*
X143524103Y-91550500D01*
X143556708Y-91488705D01*
X143572748Y-91474807D01*
X143607385Y-91449642D01*
X143774392Y-91282635D01*
X143913218Y-91091558D01*
X144020443Y-90881117D01*
X144093428Y-90656493D01*
X144115761Y-90515487D01*
X144130375Y-90423222D01*
X144130375Y-90187027D01*
X144093428Y-89953756D01*
X144059564Y-89849537D01*
X144020443Y-89729133D01*
X144020441Y-89729130D01*
X144020441Y-89729128D01*
X143959297Y-89609128D01*
X143913218Y-89518692D01*
X143774392Y-89327615D01*
X143607385Y-89160608D01*
X143572747Y-89135442D01*
X143530082Y-89080114D01*
X143524103Y-89010500D01*
X143556708Y-88948705D01*
X143572748Y-88934807D01*
X143607385Y-88909642D01*
X143774392Y-88742635D01*
X143913218Y-88551558D01*
X144020443Y-88341117D01*
X144093428Y-88116493D01*
X144113098Y-87992302D01*
X144130375Y-87883222D01*
X144130375Y-87647027D01*
X144093428Y-87413756D01*
X144055311Y-87296444D01*
X144020443Y-87189133D01*
X144020441Y-87189130D01*
X144020441Y-87189128D01*
X143959297Y-87069128D01*
X143913218Y-86978692D01*
X143774392Y-86787615D01*
X143607385Y-86620608D01*
X143572747Y-86595442D01*
X143530082Y-86540114D01*
X143524103Y-86470500D01*
X143556708Y-86408705D01*
X143572748Y-86394807D01*
X143607385Y-86369642D01*
X143774392Y-86202635D01*
X143913218Y-86011558D01*
X144020443Y-85801117D01*
X144093428Y-85576493D01*
X144103456Y-85513181D01*
X144130375Y-85343222D01*
X144130375Y-85107027D01*
X144093428Y-84873756D01*
X144055982Y-84758511D01*
X144020443Y-84649133D01*
X144020441Y-84649130D01*
X144020441Y-84649128D01*
X143944851Y-84500776D01*
X143913218Y-84438692D01*
X143774392Y-84247615D01*
X143607385Y-84080608D01*
X143572747Y-84055442D01*
X143530082Y-84000114D01*
X143524103Y-83930500D01*
X143556708Y-83868705D01*
X143572748Y-83854807D01*
X143607385Y-83829642D01*
X143774392Y-83662635D01*
X143913218Y-83471558D01*
X144020443Y-83261117D01*
X144093428Y-83036493D01*
X144120973Y-82862580D01*
X144130375Y-82803222D01*
X144130375Y-82567027D01*
X144093428Y-82333756D01*
X144057434Y-82222978D01*
X144020443Y-82109133D01*
X144020441Y-82109130D01*
X144020441Y-82109128D01*
X143936811Y-81944996D01*
X143913218Y-81898692D01*
X143774392Y-81707615D01*
X143607385Y-81540608D01*
X143572747Y-81515442D01*
X143530082Y-81460114D01*
X143524103Y-81390500D01*
X143556708Y-81328705D01*
X143572748Y-81314807D01*
X143607385Y-81289642D01*
X143774392Y-81122635D01*
X143913218Y-80931558D01*
X144020443Y-80721117D01*
X144093428Y-80496493D01*
X144114763Y-80361791D01*
X144130375Y-80263222D01*
X144130375Y-80027027D01*
X144093428Y-79793756D01*
X144055887Y-79678218D01*
X144020443Y-79569133D01*
X144020441Y-79569130D01*
X144020441Y-79569128D01*
X143953345Y-79437445D01*
X143913218Y-79358692D01*
X143774392Y-79167615D01*
X143607385Y-79000608D01*
X143572747Y-78975442D01*
X143530082Y-78920114D01*
X143524103Y-78850500D01*
X143556708Y-78788705D01*
X143572748Y-78774807D01*
X143607385Y-78749642D01*
X143774392Y-78582635D01*
X143913218Y-78391558D01*
X144020443Y-78181117D01*
X144093428Y-77956493D01*
X144102893Y-77896735D01*
X144130375Y-77723222D01*
X144130375Y-77487027D01*
X144093428Y-77253756D01*
X144058632Y-77146666D01*
X144020443Y-77029133D01*
X144020441Y-77029130D01*
X144020441Y-77029128D01*
X143929425Y-76850500D01*
X143913218Y-76818692D01*
X143774392Y-76627615D01*
X143607385Y-76460608D01*
X143572747Y-76435442D01*
X143530082Y-76380114D01*
X143524103Y-76310500D01*
X143556708Y-76248705D01*
X143572748Y-76234807D01*
X143581473Y-76228468D01*
X143607385Y-76209642D01*
X143774392Y-76042635D01*
X143913218Y-75851558D01*
X144020443Y-75641117D01*
X144093428Y-75416493D01*
X144100129Y-75374182D01*
X144130375Y-75183222D01*
X144130375Y-74947027D01*
X144093428Y-74713756D01*
X144057434Y-74602978D01*
X144020443Y-74489133D01*
X144020441Y-74489130D01*
X144020441Y-74489128D01*
X143936811Y-74324996D01*
X143913218Y-74278692D01*
X143774392Y-74087615D01*
X143607385Y-73920608D01*
X143572747Y-73895442D01*
X143530082Y-73840114D01*
X143524103Y-73770500D01*
X143556708Y-73708705D01*
X143572748Y-73694807D01*
X143572865Y-73694722D01*
X143607385Y-73669642D01*
X143774392Y-73502635D01*
X143913218Y-73311558D01*
X144020443Y-73101117D01*
X144093428Y-72876493D01*
X144098065Y-72847219D01*
X144130375Y-72643222D01*
X144130375Y-72407027D01*
X144093428Y-72173756D01*
X144057434Y-72062978D01*
X144020443Y-71949133D01*
X144020441Y-71949130D01*
X144020441Y-71949128D01*
X143936185Y-71783768D01*
X143913218Y-71738692D01*
X143774392Y-71547615D01*
X143607385Y-71380608D01*
X143572747Y-71355442D01*
X143530082Y-71300114D01*
X143524103Y-71230500D01*
X143556708Y-71168705D01*
X143572748Y-71154807D01*
X143575530Y-71152786D01*
X143607385Y-71129642D01*
X143774392Y-70962635D01*
X143913218Y-70771558D01*
X144020443Y-70561117D01*
X144093428Y-70336493D01*
X144101889Y-70283070D01*
X144130375Y-70103222D01*
X144130375Y-69867027D01*
X144093428Y-69633756D01*
X144057261Y-69522446D01*
X144020443Y-69409133D01*
X144020441Y-69409130D01*
X144020441Y-69409128D01*
X143940279Y-69251803D01*
X143913218Y-69198692D01*
X143774392Y-69007615D01*
X143607385Y-68840608D01*
X143572747Y-68815442D01*
X143530082Y-68760114D01*
X143524103Y-68690500D01*
X143556708Y-68628705D01*
X143572748Y-68614807D01*
X143607385Y-68589642D01*
X143774392Y-68422635D01*
X143913218Y-68231558D01*
X144020443Y-68021117D01*
X144093428Y-67796493D01*
X144111992Y-67679283D01*
X144130375Y-67563222D01*
X144130375Y-67327027D01*
X144093428Y-67093756D01*
X144055894Y-66978240D01*
X144020443Y-66869133D01*
X144020441Y-66869130D01*
X144020441Y-66869128D01*
X143939221Y-66709726D01*
X143913218Y-66658692D01*
X143774392Y-66467615D01*
X143607385Y-66300608D01*
X143572747Y-66275442D01*
X143530082Y-66220114D01*
X143524103Y-66150500D01*
X143556708Y-66088705D01*
X143572748Y-66074807D01*
X143607385Y-66049642D01*
X143774392Y-65882635D01*
X143913218Y-65691558D01*
X144020443Y-65481117D01*
X144093428Y-65256493D01*
X144101628Y-65204719D01*
X144130375Y-65023222D01*
X144130375Y-64787027D01*
X144093428Y-64553756D01*
X144054854Y-64435040D01*
X144020443Y-64329133D01*
X144020441Y-64329130D01*
X144020441Y-64329128D01*
X143939221Y-64169726D01*
X143913218Y-64118692D01*
X143774392Y-63927615D01*
X143607385Y-63760608D01*
X143572747Y-63735442D01*
X143530082Y-63680114D01*
X143524103Y-63610500D01*
X143556708Y-63548705D01*
X143572748Y-63534807D01*
X143607385Y-63509642D01*
X143774392Y-63342635D01*
X143913218Y-63151558D01*
X144020443Y-62941117D01*
X144093428Y-62716493D01*
X144106391Y-62634648D01*
X144130375Y-62483222D01*
X144130375Y-62247027D01*
X144093428Y-62013756D01*
X144020441Y-61789128D01*
X143913217Y-61578691D01*
X143874726Y-61525713D01*
X143774392Y-61387615D01*
X143607385Y-61220608D01*
X143416308Y-61081782D01*
X143205871Y-60974558D01*
X142981243Y-60901571D01*
X142747972Y-60864625D01*
X142747967Y-60864625D01*
X142511783Y-60864625D01*
X142511778Y-60864625D01*
X142278506Y-60901571D01*
X142053878Y-60974558D01*
X141843441Y-61081782D01*
X141734978Y-61160586D01*
X141652365Y-61220608D01*
X141652363Y-61220610D01*
X141652362Y-61220610D01*
X141644667Y-61228306D01*
X141583344Y-61261791D01*
X141556986Y-61264625D01*
X141221486Y-61264625D01*
X141048264Y-61264625D01*
X140962719Y-61278174D01*
X140877173Y-61291723D01*
X140712424Y-61345253D01*
X140558086Y-61423893D01*
X140510753Y-61458283D01*
X140417947Y-61525711D01*
X140417945Y-61525713D01*
X140417944Y-61525713D01*
X138160588Y-63783069D01*
X138160588Y-63783070D01*
X138160586Y-63783072D01*
X138116859Y-63843256D01*
X138058768Y-63923211D01*
X137980128Y-64077552D01*
X137926597Y-64242302D01*
X137899500Y-64413389D01*
X137899500Y-68592795D01*
X137879815Y-68659834D01*
X137863181Y-68680476D01*
X135841207Y-70702449D01*
X135791845Y-70732699D01*
X135600776Y-70794781D01*
X135418386Y-70887715D01*
X135252786Y-71008028D01*
X135108028Y-71152786D01*
X134987715Y-71318386D01*
X134894781Y-71500776D01*
X134831522Y-71695465D01*
X134799500Y-71897648D01*
X134799500Y-72102351D01*
X134831522Y-72304534D01*
X134894781Y-72499223D01*
X134985985Y-72678218D01*
X134999500Y-72734513D01*
X134999500Y-76643796D01*
X134979815Y-76710835D01*
X134927011Y-76756590D01*
X134857853Y-76766534D01*
X134794297Y-76737509D01*
X134787819Y-76731477D01*
X132966930Y-74910588D01*
X132966928Y-74910586D01*
X132826788Y-74808768D01*
X132672445Y-74730127D01*
X132507701Y-74676598D01*
X132507699Y-74676597D01*
X132507698Y-74676597D01*
X132376271Y-74655781D01*
X132336611Y-74649500D01*
X125336611Y-74649500D01*
X125163389Y-74649500D01*
X125123728Y-74655781D01*
X124992302Y-74676597D01*
X124992299Y-74676598D01*
X124829713Y-74729426D01*
X124827552Y-74730128D01*
X124673211Y-74808768D01*
X124593256Y-74866859D01*
X124533072Y-74910586D01*
X124533070Y-74910588D01*
X124533069Y-74910588D01*
X122330477Y-77113181D01*
X122269154Y-77146666D01*
X122242796Y-77149500D01*
X118007204Y-77149500D01*
X117940165Y-77129815D01*
X117919523Y-77113181D01*
X116886819Y-76080477D01*
X116853334Y-76019154D01*
X116850500Y-75992796D01*
X116850500Y-72622648D01*
X118764500Y-72622648D01*
X118764500Y-72827351D01*
X118796522Y-73029534D01*
X118859781Y-73224223D01*
X118952715Y-73406613D01*
X119073028Y-73572213D01*
X119217786Y-73716971D01*
X119366396Y-73824940D01*
X119383390Y-73837287D01*
X119497527Y-73895443D01*
X119565776Y-73930218D01*
X119565778Y-73930218D01*
X119565781Y-73930220D01*
X119656856Y-73959812D01*
X119760465Y-73993477D01*
X119861557Y-74009488D01*
X119962648Y-74025500D01*
X119962649Y-74025500D01*
X120167351Y-74025500D01*
X120167352Y-74025500D01*
X120369534Y-73993477D01*
X120564219Y-73930220D01*
X120743220Y-73839014D01*
X120799512Y-73825500D01*
X122761610Y-73825500D01*
X122761611Y-73825500D01*
X122932701Y-73798402D01*
X123097445Y-73744873D01*
X123251788Y-73666232D01*
X123391928Y-73564414D01*
X123658793Y-73297547D01*
X123708150Y-73267301D01*
X123899219Y-73205220D01*
X124081610Y-73112287D01*
X124220439Y-73011423D01*
X124247213Y-72991971D01*
X124247215Y-72991968D01*
X124247219Y-72991966D01*
X124391966Y-72847219D01*
X124391968Y-72847215D01*
X124391971Y-72847213D01*
X124500500Y-72697833D01*
X124512287Y-72681610D01*
X124605220Y-72499219D01*
X124667301Y-72308150D01*
X124697549Y-72258791D01*
X126569523Y-70386819D01*
X126630846Y-70353334D01*
X126657204Y-70350500D01*
X134336610Y-70350500D01*
X134336611Y-70350500D01*
X134507701Y-70323402D01*
X134672445Y-70269873D01*
X134826788Y-70191232D01*
X134966928Y-70089414D01*
X135920814Y-69135526D01*
X135982135Y-69102043D01*
X135989048Y-69100743D01*
X136112826Y-69081140D01*
X136322481Y-69013020D01*
X136518897Y-68912940D01*
X136697240Y-68783367D01*
X136853117Y-68627490D01*
X136982690Y-68449147D01*
X137082770Y-68252731D01*
X137150890Y-68043076D01*
X137185375Y-67825347D01*
X137185375Y-67604903D01*
X137150890Y-67387174D01*
X137092360Y-67207033D01*
X137082771Y-67177521D01*
X137082770Y-67177518D01*
X137032954Y-67079751D01*
X136982690Y-66981103D01*
X136901336Y-66869128D01*
X136853122Y-66802766D01*
X136853118Y-66802761D01*
X136697238Y-66646881D01*
X136697233Y-66646877D01*
X136518900Y-66517312D01*
X136518899Y-66517311D01*
X136518897Y-66517310D01*
X136455971Y-66485247D01*
X136322481Y-66417229D01*
X136322478Y-66417228D01*
X136112827Y-66349110D01*
X136003961Y-66331867D01*
X135895097Y-66314625D01*
X135674653Y-66314625D01*
X135602076Y-66326120D01*
X135456922Y-66349110D01*
X135247271Y-66417228D01*
X135247268Y-66417229D01*
X135050849Y-66517312D01*
X134872516Y-66646877D01*
X134872511Y-66646881D01*
X134716631Y-66802761D01*
X134716627Y-66802766D01*
X134587062Y-66981099D01*
X134486979Y-67177518D01*
X134486978Y-67177521D01*
X134418860Y-67387172D01*
X134399262Y-67510904D01*
X134369332Y-67574038D01*
X134364470Y-67579186D01*
X133830477Y-68113181D01*
X133769154Y-68146666D01*
X133742796Y-68149500D01*
X126236610Y-68149500D01*
X126063389Y-68149500D01*
X125977844Y-68163049D01*
X125892298Y-68176598D01*
X125727549Y-68230128D01*
X125573211Y-68308768D01*
X125493256Y-68366859D01*
X125433072Y-68410586D01*
X125433070Y-68410588D01*
X125433069Y-68410588D01*
X123141207Y-70702449D01*
X123091845Y-70732699D01*
X122900776Y-70794781D01*
X122718386Y-70887715D01*
X122552786Y-71008028D01*
X122408028Y-71152786D01*
X122287715Y-71318386D01*
X122194781Y-71500776D01*
X122182421Y-71538819D01*
X122142983Y-71596494D01*
X122078624Y-71623692D01*
X122064490Y-71624500D01*
X120799512Y-71624500D01*
X120743220Y-71610985D01*
X120658636Y-71567888D01*
X120564223Y-71519781D01*
X120369534Y-71456522D01*
X120187000Y-71427612D01*
X120167352Y-71424500D01*
X119962648Y-71424500D01*
X119943000Y-71427612D01*
X119760465Y-71456522D01*
X119565776Y-71519781D01*
X119383386Y-71612715D01*
X119217786Y-71733028D01*
X119073028Y-71877786D01*
X118952715Y-72043386D01*
X118859781Y-72225776D01*
X118796522Y-72420465D01*
X118764500Y-72622648D01*
X116850500Y-72622648D01*
X116850500Y-70913389D01*
X116839294Y-70842636D01*
X116823402Y-70742299D01*
X116769873Y-70577555D01*
X116691232Y-70423212D01*
X116589414Y-70283072D01*
X116466928Y-70160586D01*
X114716928Y-68410586D01*
X114576788Y-68308768D01*
X114422445Y-68230127D01*
X114257701Y-68176598D01*
X114257699Y-68176597D01*
X114257698Y-68176597D01*
X114126271Y-68155781D01*
X114086611Y-68149500D01*
X114086610Y-68149500D01*
X104757204Y-68149500D01*
X104690165Y-68129815D01*
X104669523Y-68113181D01*
X104271944Y-67715602D01*
X104238459Y-67654279D01*
X104235625Y-67627921D01*
X104235625Y-66644277D01*
X104255310Y-66577238D01*
X104259296Y-66571406D01*
X104315170Y-66494504D01*
X104416679Y-66295283D01*
X104485772Y-66082634D01*
X104520750Y-65861796D01*
X104520750Y-65638204D01*
X104485772Y-65417366D01*
X104416679Y-65204717D01*
X104416679Y-65204716D01*
X104324199Y-65023217D01*
X104315170Y-65005496D01*
X104183746Y-64824607D01*
X104025643Y-64666504D01*
X103844754Y-64535080D01*
X103645533Y-64433570D01*
X103645530Y-64433569D01*
X103432885Y-64364478D01*
X103266501Y-64338125D01*
X103212046Y-64329500D01*
X102988454Y-64329500D01*
X102933999Y-64338125D01*
X102767614Y-64364478D01*
X102554969Y-64433569D01*
X102554966Y-64433570D01*
X102355745Y-64535080D01*
X102174858Y-64666503D01*
X102062395Y-64778966D01*
X102001072Y-64812450D01*
X101931380Y-64807466D01*
X101887033Y-64778965D01*
X101787895Y-64679827D01*
X101787893Y-64679825D01*
X101607004Y-64548401D01*
X101594946Y-64542257D01*
X101407783Y-64446891D01*
X101407780Y-64446890D01*
X101195135Y-64377799D01*
X101084715Y-64360310D01*
X100974296Y-64342821D01*
X100750704Y-64342821D01*
X100677091Y-64354480D01*
X100529864Y-64377799D01*
X100317219Y-64446890D01*
X100317216Y-64446891D01*
X100202642Y-64505271D01*
X100146347Y-64518786D01*
X95626490Y-64518786D01*
X95559451Y-64499101D01*
X95538809Y-64482467D01*
X92216930Y-61160588D01*
X92216928Y-61160586D01*
X92076788Y-61058768D01*
X91922445Y-60980127D01*
X91757701Y-60926598D01*
X91757699Y-60926597D01*
X91757698Y-60926597D01*
X91626271Y-60905781D01*
X91586611Y-60899500D01*
X84336610Y-60899500D01*
X84163389Y-60899500D01*
X84077844Y-60913049D01*
X83992298Y-60926598D01*
X83827549Y-60980128D01*
X83673211Y-61058768D01*
X83593256Y-61116859D01*
X83533072Y-61160586D01*
X83533070Y-61160588D01*
X83533069Y-61160588D01*
X80660588Y-64033069D01*
X80660588Y-64033070D01*
X80660586Y-64033072D01*
X80628269Y-64077552D01*
X80558768Y-64173211D01*
X80480128Y-64327552D01*
X80426597Y-64492302D01*
X80399500Y-64663389D01*
X78285375Y-64663389D01*
X78285375Y-54639778D01*
X91349500Y-54639778D01*
X91349500Y-54860221D01*
X91383985Y-55077952D01*
X91452103Y-55287603D01*
X91452104Y-55287606D01*
X91552187Y-55484025D01*
X91681752Y-55662358D01*
X91681756Y-55662363D01*
X91837636Y-55818243D01*
X91837641Y-55818247D01*
X91993192Y-55931260D01*
X92015978Y-55947815D01*
X92144375Y-56013237D01*
X92212393Y-56047895D01*
X92212396Y-56047896D01*
X92317221Y-56081955D01*
X92422049Y-56116015D01*
X92639778Y-56150500D01*
X92639779Y-56150500D01*
X92860221Y-56150500D01*
X92860222Y-56150500D01*
X93077951Y-56116015D01*
X93287606Y-56047895D01*
X93484022Y-55947815D01*
X93662365Y-55818242D01*
X93818242Y-55662365D01*
X93899682Y-55550270D01*
X93955011Y-55507606D01*
X94024624Y-55501627D01*
X94086420Y-55534232D01*
X94100313Y-55550265D01*
X94136811Y-55600500D01*
X94181758Y-55662365D01*
X94337636Y-55818243D01*
X94337641Y-55818247D01*
X94493192Y-55931260D01*
X94515978Y-55947815D01*
X94644375Y-56013237D01*
X94712393Y-56047895D01*
X94712396Y-56047896D01*
X94817221Y-56081955D01*
X94922049Y-56116015D01*
X95139778Y-56150500D01*
X95139779Y-56150500D01*
X95360221Y-56150500D01*
X95360222Y-56150500D01*
X95577951Y-56116015D01*
X95787606Y-56047895D01*
X95984022Y-55947815D01*
X96162365Y-55818242D01*
X96318242Y-55662365D01*
X96447815Y-55484022D01*
X96547895Y-55287606D01*
X96616015Y-55077951D01*
X96650500Y-54860222D01*
X96650500Y-54639778D01*
X96616015Y-54422049D01*
X96547895Y-54212394D01*
X96547895Y-54212393D01*
X96513237Y-54144375D01*
X96447815Y-54015978D01*
X96411335Y-53965767D01*
X96374182Y-53914629D01*
X96350702Y-53848823D01*
X96350500Y-53841744D01*
X96350500Y-53257204D01*
X96370185Y-53190165D01*
X96386819Y-53169523D01*
X97954398Y-51601944D01*
X98015721Y-51568459D01*
X98042079Y-51565625D01*
X159707921Y-51565625D01*
X159774960Y-51585310D01*
X159795602Y-51601944D01*
X168898056Y-60704398D01*
X168931541Y-60765721D01*
X168934375Y-60792079D01*
X168934375Y-64102687D01*
X168914690Y-64169726D01*
X168861886Y-64215481D01*
X168792728Y-64225425D01*
X168729172Y-64196400D01*
X168699890Y-64158982D01*
X168618217Y-63998691D01*
X168566577Y-63927615D01*
X168479392Y-63807615D01*
X168312385Y-63640608D01*
X168121308Y-63501782D01*
X167910871Y-63394558D01*
X167686243Y-63321571D01*
X167452972Y-63284625D01*
X167452967Y-63284625D01*
X167216783Y-63284625D01*
X167216778Y-63284625D01*
X166983506Y-63321571D01*
X166758878Y-63394558D01*
X166548441Y-63501782D01*
X166439425Y-63580987D01*
X166357365Y-63640608D01*
X166357363Y-63640610D01*
X166357362Y-63640610D01*
X166190360Y-63807612D01*
X166190360Y-63807613D01*
X166190358Y-63807615D01*
X166130737Y-63889675D01*
X166051532Y-63998691D01*
X165944308Y-64209128D01*
X165871321Y-64433756D01*
X165834375Y-64667027D01*
X165834375Y-64903222D01*
X165871322Y-65136494D01*
X165871322Y-65136497D01*
X165884377Y-65176674D01*
X165886372Y-65246515D01*
X165850292Y-65306348D01*
X165787591Y-65337176D01*
X165718177Y-65329211D01*
X165678765Y-65302673D01*
X165571694Y-65195602D01*
X165538209Y-65134279D01*
X165535375Y-65107921D01*
X165535375Y-60778514D01*
X165533349Y-60765721D01*
X165508277Y-60607424D01*
X165454748Y-60442680D01*
X165376107Y-60288337D01*
X165274289Y-60148197D01*
X165151803Y-60025711D01*
X158786678Y-53660586D01*
X158646538Y-53558768D01*
X158492195Y-53480127D01*
X158327451Y-53426598D01*
X158327449Y-53426597D01*
X158327448Y-53426597D01*
X158196021Y-53405781D01*
X158156361Y-53399500D01*
X117086610Y-53399500D01*
X116913389Y-53399500D01*
X116827844Y-53413049D01*
X116742298Y-53426598D01*
X116577549Y-53480128D01*
X116423211Y-53558768D01*
X116343256Y-53616859D01*
X116283072Y-53660586D01*
X116283070Y-53660588D01*
X116283069Y-53660588D01*
X107375713Y-62567944D01*
X107375713Y-62567945D01*
X107375711Y-62567947D01*
X107331984Y-62628131D01*
X107273893Y-62708086D01*
X107195253Y-62862427D01*
X107141722Y-63027177D01*
X107114625Y-63198264D01*
X107114625Y-64759720D01*
X107094940Y-64826759D01*
X107090953Y-64832591D01*
X107039640Y-64903217D01*
X106965330Y-65005495D01*
X106863820Y-65204716D01*
X106863819Y-65204719D01*
X106794728Y-65417364D01*
X106784630Y-65481121D01*
X106759750Y-65638204D01*
X106759750Y-65861796D01*
X106770496Y-65929642D01*
X106794728Y-66082635D01*
X106863819Y-66295280D01*
X106863820Y-66295283D01*
X106947085Y-66458697D01*
X106965330Y-66494504D01*
X107096754Y-66675393D01*
X107254857Y-66833496D01*
X107435746Y-66964920D01*
X107507860Y-67001664D01*
X107634966Y-67066429D01*
X107634969Y-67066430D01*
X107729696Y-67097208D01*
X107847616Y-67135522D01*
X108068454Y-67170500D01*
X108068455Y-67170500D01*
X108292045Y-67170500D01*
X108292046Y-67170500D01*
X108512884Y-67135522D01*
X108725533Y-67066429D01*
X108924754Y-66964920D01*
X109105643Y-66833496D01*
X109263746Y-66675393D01*
X109349932Y-66556767D01*
X109405262Y-66514103D01*
X109474876Y-66508124D01*
X109536671Y-66540730D01*
X109550565Y-66556765D01*
X109636754Y-66675393D01*
X109794857Y-66833496D01*
X109975746Y-66964920D01*
X110047860Y-67001664D01*
X110174966Y-67066429D01*
X110174969Y-67066430D01*
X110269696Y-67097208D01*
X110387616Y-67135522D01*
X110608454Y-67170500D01*
X110608455Y-67170500D01*
X110832045Y-67170500D01*
X110832046Y-67170500D01*
X111052884Y-67135522D01*
X111265533Y-67066429D01*
X111464754Y-66964920D01*
X111645643Y-66833496D01*
X111803746Y-66675393D01*
X111889932Y-66556767D01*
X111945262Y-66514103D01*
X112014876Y-66508124D01*
X112076671Y-66540730D01*
X112090565Y-66556765D01*
X112176754Y-66675393D01*
X112334857Y-66833496D01*
X112515746Y-66964920D01*
X112587860Y-67001664D01*
X112714966Y-67066429D01*
X112714969Y-67066430D01*
X112809696Y-67097208D01*
X112927616Y-67135522D01*
X113148454Y-67170500D01*
X113148455Y-67170500D01*
X113372045Y-67170500D01*
X113372046Y-67170500D01*
X113592884Y-67135522D01*
X113805533Y-67066429D01*
X114004754Y-66964920D01*
X114185643Y-66833496D01*
X114343746Y-66675393D01*
X114429932Y-66556767D01*
X114485262Y-66514103D01*
X114554876Y-66508124D01*
X114616671Y-66540730D01*
X114630565Y-66556765D01*
X114716754Y-66675393D01*
X114874857Y-66833496D01*
X115055746Y-66964920D01*
X115127860Y-67001664D01*
X115254966Y-67066429D01*
X115254969Y-67066430D01*
X115349696Y-67097208D01*
X115467616Y-67135522D01*
X115688454Y-67170500D01*
X115688455Y-67170500D01*
X115912045Y-67170500D01*
X115912046Y-67170500D01*
X116132884Y-67135522D01*
X116345533Y-67066429D01*
X116544754Y-66964920D01*
X116725643Y-66833496D01*
X116883746Y-66675393D01*
X116969932Y-66556767D01*
X117025262Y-66514103D01*
X117094876Y-66508124D01*
X117156671Y-66540730D01*
X117170565Y-66556765D01*
X117256754Y-66675393D01*
X117414857Y-66833496D01*
X117595746Y-66964920D01*
X117667860Y-67001664D01*
X117794966Y-67066429D01*
X117794969Y-67066430D01*
X117889696Y-67097208D01*
X118007616Y-67135522D01*
X118228454Y-67170500D01*
X118228455Y-67170500D01*
X118452045Y-67170500D01*
X118452046Y-67170500D01*
X118672884Y-67135522D01*
X118885533Y-67066429D01*
X119084754Y-66964920D01*
X119265643Y-66833496D01*
X119423746Y-66675393D01*
X119555170Y-66494504D01*
X119656679Y-66295283D01*
X119725772Y-66082634D01*
X119760750Y-65861796D01*
X119760750Y-65638204D01*
X119725772Y-65417366D01*
X119656679Y-65204717D01*
X119656679Y-65204716D01*
X119564199Y-65023217D01*
X119555170Y-65005496D01*
X119423746Y-64824607D01*
X119265643Y-64666504D01*
X119084754Y-64535080D01*
X118885533Y-64433570D01*
X118885530Y-64433569D01*
X118672885Y-64364478D01*
X118506501Y-64338125D01*
X118452046Y-64329500D01*
X118228454Y-64329500D01*
X118173999Y-64338125D01*
X118007614Y-64364478D01*
X117794969Y-64433569D01*
X117794966Y-64433570D01*
X117595745Y-64535080D01*
X117554647Y-64564940D01*
X117414857Y-64666504D01*
X117414855Y-64666506D01*
X117414854Y-64666506D01*
X117256755Y-64824605D01*
X117170568Y-64943231D01*
X117115237Y-64985896D01*
X117045624Y-64991875D01*
X116983829Y-64959269D01*
X116969932Y-64943231D01*
X116937809Y-64899018D01*
X116883746Y-64824607D01*
X116725643Y-64666504D01*
X116544754Y-64535080D01*
X116345533Y-64433570D01*
X116345530Y-64433569D01*
X116132885Y-64364478D01*
X115966501Y-64338125D01*
X115912046Y-64329500D01*
X115688454Y-64329500D01*
X115633999Y-64338125D01*
X115467614Y-64364478D01*
X115254969Y-64433569D01*
X115254966Y-64433570D01*
X115055745Y-64535080D01*
X115014647Y-64564940D01*
X114874857Y-64666504D01*
X114874855Y-64666506D01*
X114874854Y-64666506D01*
X114716755Y-64824605D01*
X114630568Y-64943231D01*
X114575237Y-64985896D01*
X114505624Y-64991875D01*
X114443829Y-64959269D01*
X114429932Y-64943231D01*
X114397809Y-64899018D01*
X114343746Y-64824607D01*
X114185643Y-64666504D01*
X114004754Y-64535080D01*
X113805533Y-64433570D01*
X113805530Y-64433569D01*
X113592885Y-64364478D01*
X113426501Y-64338125D01*
X113372046Y-64329500D01*
X113148454Y-64329500D01*
X113093999Y-64338125D01*
X112927614Y-64364478D01*
X112714969Y-64433569D01*
X112714966Y-64433570D01*
X112515745Y-64535080D01*
X112474647Y-64564940D01*
X112334857Y-64666504D01*
X112334855Y-64666506D01*
X112334854Y-64666506D01*
X112176755Y-64824605D01*
X112090568Y-64943231D01*
X112068294Y-64960406D01*
X112048117Y-64980015D01*
X112040991Y-64981458D01*
X112035237Y-64985896D01*
X112007213Y-64988302D01*
X111979639Y-64993890D01*
X111972865Y-64991253D01*
X111965624Y-64991875D01*
X111940742Y-64978746D01*
X111914530Y-64968541D01*
X111907297Y-64961099D01*
X111903829Y-64959269D01*
X111889932Y-64943231D01*
X111879307Y-64928607D01*
X111855827Y-64862800D01*
X111855625Y-64855721D01*
X111855625Y-64502079D01*
X111875310Y-64435040D01*
X111891944Y-64414398D01*
X117201439Y-59104903D01*
X134384375Y-59104903D01*
X134384375Y-59325346D01*
X134418860Y-59543077D01*
X134486978Y-59752728D01*
X134486979Y-59752731D01*
X134587062Y-59949150D01*
X134716627Y-60127483D01*
X134716631Y-60127488D01*
X134872511Y-60283368D01*
X134872516Y-60283372D01*
X135028067Y-60396385D01*
X135050853Y-60412940D01*
X135179250Y-60478362D01*
X135247268Y-60513020D01*
X135247271Y-60513021D01*
X135352096Y-60547080D01*
X135456924Y-60581140D01*
X135674653Y-60615625D01*
X135674654Y-60615625D01*
X135895096Y-60615625D01*
X135895097Y-60615625D01*
X136112826Y-60581140D01*
X136322481Y-60513020D01*
X136518897Y-60412940D01*
X136602851Y-60351944D01*
X136620245Y-60339307D01*
X136686051Y-60315827D01*
X136693130Y-60315625D01*
X154457921Y-60315625D01*
X154524960Y-60335310D01*
X154545602Y-60351944D01*
X158363181Y-64169523D01*
X158396666Y-64230846D01*
X158399500Y-64257204D01*
X158399500Y-96336610D01*
X158426189Y-96505124D01*
X158426598Y-96507701D01*
X158480127Y-96672445D01*
X158558768Y-96826788D01*
X158660586Y-96966928D01*
X162878197Y-101184539D01*
X163018337Y-101286357D01*
X163089537Y-101322635D01*
X163172674Y-101364996D01*
X163172676Y-101364996D01*
X163172679Y-101364998D01*
X163337424Y-101418527D01*
X163508514Y-101445625D01*
X163681735Y-101445625D01*
X166261986Y-101445625D01*
X166284961Y-101452371D01*
X166308781Y-101454794D01*
X166321123Y-101462989D01*
X166329025Y-101465310D01*
X166339237Y-101472629D01*
X166344714Y-101476991D01*
X166357365Y-101489642D01*
X166394218Y-101516417D01*
X166396367Y-101518129D01*
X166414946Y-101544562D01*
X166434667Y-101570138D01*
X166434909Y-101572966D01*
X166436544Y-101575291D01*
X166437882Y-101607573D01*
X166440646Y-101639751D01*
X166439320Y-101642263D01*
X166439438Y-101645101D01*
X166423117Y-101672972D01*
X166408040Y-101701546D01*
X166404678Y-101704458D01*
X166404131Y-101705394D01*
X166402846Y-101706046D01*
X166392005Y-101715440D01*
X166374240Y-101728347D01*
X166357363Y-101740609D01*
X166190360Y-101907612D01*
X166190360Y-101907613D01*
X166190358Y-101907615D01*
X166141427Y-101974962D01*
X166051532Y-102098691D01*
X165944308Y-102309128D01*
X165871321Y-102533756D01*
X165834375Y-102767027D01*
X165834375Y-103003222D01*
X165871321Y-103236493D01*
X165944308Y-103461121D01*
X166019889Y-103609456D01*
X166051532Y-103671558D01*
X166190358Y-103862635D01*
X166357365Y-104029642D01*
X166392002Y-104054808D01*
X166434667Y-104110138D01*
X166440646Y-104179751D01*
X166408040Y-104241546D01*
X166392005Y-104255440D01*
X166374240Y-104268347D01*
X166357363Y-104280609D01*
X166190360Y-104447612D01*
X166190360Y-104447613D01*
X166190358Y-104447615D01*
X166130737Y-104529675D01*
X166051532Y-104638691D01*
X165944308Y-104849128D01*
X165871321Y-105073756D01*
X165834375Y-105307027D01*
X165834375Y-105543222D01*
X165871321Y-105776493D01*
X165944308Y-106001121D01*
X166005450Y-106121117D01*
X166051532Y-106211558D01*
X166190358Y-106402635D01*
X166357365Y-106569642D01*
X166392002Y-106594808D01*
X166434667Y-106650138D01*
X166440646Y-106719751D01*
X166408040Y-106781546D01*
X166392005Y-106795440D01*
X166379489Y-106804534D01*
X166357363Y-106820609D01*
X166190360Y-106987612D01*
X166190360Y-106987613D01*
X166190358Y-106987615D01*
X166138662Y-107058768D01*
X166051532Y-107178691D01*
X165944308Y-107389128D01*
X165871321Y-107613756D01*
X165834375Y-107847027D01*
X165834375Y-108083222D01*
X165871321Y-108316493D01*
X165944308Y-108541121D01*
X166033888Y-108716930D01*
X166051532Y-108751558D01*
X166190358Y-108942635D01*
X166357365Y-109109642D01*
X166548442Y-109248468D01*
X166593971Y-109271666D01*
X166758878Y-109355691D01*
X166758880Y-109355691D01*
X166758883Y-109355693D01*
X166879287Y-109394814D01*
X166983506Y-109428678D01*
X167216778Y-109465625D01*
X167216783Y-109465625D01*
X167452972Y-109465625D01*
X167686243Y-109428678D01*
X167733294Y-109413390D01*
X167910867Y-109355693D01*
X168121308Y-109248468D01*
X168312385Y-109109642D01*
X168479392Y-108942635D01*
X168618218Y-108751558D01*
X168725443Y-108541117D01*
X168798428Y-108316493D01*
X168799483Y-108309835D01*
X168835375Y-108083222D01*
X168835375Y-107847027D01*
X168798428Y-107613756D01*
X168725441Y-107389128D01*
X168619706Y-107181613D01*
X168618218Y-107178692D01*
X168479392Y-106987615D01*
X168312385Y-106820608D01*
X168277747Y-106795442D01*
X168235082Y-106740114D01*
X168229103Y-106670500D01*
X168261708Y-106608705D01*
X168277748Y-106594807D01*
X168312385Y-106569642D01*
X168479392Y-106402635D01*
X168618218Y-106211558D01*
X168725443Y-106001117D01*
X168798428Y-105776493D01*
X168809561Y-105706204D01*
X168835375Y-105543222D01*
X168835375Y-105307027D01*
X168798428Y-105073756D01*
X168725441Y-104849128D01*
X168668877Y-104738116D01*
X168618218Y-104638692D01*
X168479392Y-104447615D01*
X168312385Y-104280608D01*
X168277747Y-104255442D01*
X168235082Y-104200114D01*
X168229103Y-104130500D01*
X168261708Y-104068705D01*
X168277748Y-104054807D01*
X168312385Y-104029642D01*
X168479392Y-103862635D01*
X168618218Y-103671558D01*
X168725443Y-103461117D01*
X168798428Y-103236493D01*
X168805056Y-103194648D01*
X168835375Y-103003222D01*
X168835375Y-102767027D01*
X168798428Y-102533756D01*
X168743294Y-102364074D01*
X168725443Y-102309133D01*
X168725441Y-102309130D01*
X168725441Y-102309128D01*
X168664181Y-102188899D01*
X168618218Y-102098692D01*
X168479392Y-101907615D01*
X168312385Y-101740608D01*
X168277747Y-101715442D01*
X168235082Y-101660114D01*
X168229103Y-101590500D01*
X168261708Y-101528705D01*
X168277748Y-101514807D01*
X168312385Y-101489642D01*
X168479392Y-101322635D01*
X168618218Y-101131558D01*
X168725443Y-100921117D01*
X168798428Y-100696493D01*
X168807937Y-100636454D01*
X168835375Y-100463222D01*
X168835375Y-100227027D01*
X168798428Y-99993756D01*
X168751466Y-99849223D01*
X168725443Y-99769133D01*
X168725441Y-99769130D01*
X168725441Y-99769128D01*
X168667052Y-99654534D01*
X168618218Y-99558692D01*
X168479392Y-99367615D01*
X168312385Y-99200608D01*
X168277747Y-99175442D01*
X168235082Y-99120114D01*
X168229103Y-99050500D01*
X168261708Y-98988705D01*
X168277748Y-98974807D01*
X168312385Y-98949642D01*
X168479392Y-98782635D01*
X168618218Y-98591558D01*
X168725443Y-98381117D01*
X168798428Y-98156493D01*
X168815374Y-98049500D01*
X168835375Y-97923222D01*
X168835375Y-97687027D01*
X168798428Y-97453756D01*
X168725441Y-97229128D01*
X168618217Y-97018691D01*
X168479392Y-96827615D01*
X168312385Y-96660608D01*
X168312357Y-96660588D01*
X168277748Y-96635443D01*
X168235082Y-96580114D01*
X168229103Y-96510500D01*
X168261708Y-96448705D01*
X168277748Y-96434807D01*
X168312385Y-96409642D01*
X168479392Y-96242635D01*
X168618218Y-96051558D01*
X168725443Y-95841117D01*
X168798428Y-95616493D01*
X168813765Y-95519659D01*
X168835375Y-95383222D01*
X168835375Y-95147027D01*
X168798428Y-94913756D01*
X168725441Y-94689128D01*
X168668877Y-94578116D01*
X168618218Y-94478692D01*
X168479392Y-94287615D01*
X168312385Y-94120608D01*
X168277747Y-94095442D01*
X168235082Y-94040114D01*
X168229103Y-93970500D01*
X168261708Y-93908705D01*
X168277748Y-93894807D01*
X168312385Y-93869642D01*
X168479392Y-93702635D01*
X168618218Y-93511558D01*
X168725443Y-93301117D01*
X168798428Y-93076493D01*
X168813765Y-92979659D01*
X168835375Y-92843222D01*
X168835375Y-92607027D01*
X168798428Y-92373756D01*
X168725441Y-92149128D01*
X168647880Y-91996907D01*
X168618218Y-91938692D01*
X168479392Y-91747615D01*
X168312385Y-91580608D01*
X168277747Y-91555442D01*
X168235082Y-91500114D01*
X168229103Y-91430500D01*
X168261708Y-91368705D01*
X168277748Y-91354807D01*
X168281127Y-91352352D01*
X168312385Y-91329642D01*
X168479392Y-91162635D01*
X168618218Y-90971558D01*
X168725443Y-90761117D01*
X168798428Y-90536493D01*
X168801755Y-90515487D01*
X168835375Y-90303222D01*
X168835375Y-90067027D01*
X168798428Y-89833756D01*
X168725441Y-89609128D01*
X168618217Y-89398691D01*
X168479392Y-89207615D01*
X168312385Y-89040608D01*
X168277747Y-89015442D01*
X168235082Y-88960114D01*
X168229103Y-88890500D01*
X168261708Y-88828705D01*
X168277748Y-88814807D01*
X168312385Y-88789642D01*
X168479392Y-88622635D01*
X168618218Y-88431558D01*
X168725443Y-88221117D01*
X168798428Y-87996493D01*
X168805713Y-87950500D01*
X168835375Y-87763222D01*
X168835375Y-87527027D01*
X168798428Y-87293756D01*
X168751466Y-87149223D01*
X168725443Y-87069133D01*
X168725441Y-87069130D01*
X168725441Y-87069128D01*
X168622878Y-86867838D01*
X168618218Y-86858692D01*
X168479392Y-86667615D01*
X168312385Y-86500608D01*
X168277747Y-86475442D01*
X168235082Y-86420114D01*
X168229103Y-86350500D01*
X168261708Y-86288705D01*
X168277748Y-86274807D01*
X168312385Y-86249642D01*
X168479392Y-86082635D01*
X168618218Y-85891558D01*
X168725443Y-85681117D01*
X168798428Y-85456493D01*
X168815374Y-85349500D01*
X168835375Y-85223222D01*
X168835375Y-84987027D01*
X168798428Y-84753756D01*
X168743696Y-84585310D01*
X168725443Y-84529133D01*
X168725441Y-84529130D01*
X168725441Y-84529128D01*
X168635616Y-84352838D01*
X168618218Y-84318692D01*
X168479392Y-84127615D01*
X168312385Y-83960608D01*
X168277747Y-83935442D01*
X168235082Y-83880114D01*
X168229103Y-83810500D01*
X168261708Y-83748705D01*
X168277748Y-83734807D01*
X168282268Y-83731523D01*
X168312385Y-83709642D01*
X168479392Y-83542635D01*
X168618218Y-83351558D01*
X168725443Y-83141117D01*
X168798428Y-82916493D01*
X168811479Y-82834091D01*
X168835375Y-82683222D01*
X168835375Y-82447027D01*
X168798428Y-82213756D01*
X168749930Y-82064495D01*
X168725443Y-81989133D01*
X168725441Y-81989130D01*
X168725441Y-81989128D01*
X168668877Y-81878116D01*
X168618218Y-81778692D01*
X168479392Y-81587615D01*
X168312385Y-81420608D01*
X168277747Y-81395442D01*
X168235082Y-81340114D01*
X168229103Y-81270500D01*
X168261708Y-81208705D01*
X168277748Y-81194807D01*
X168312385Y-81169642D01*
X168479392Y-81002635D01*
X168618218Y-80811558D01*
X168725443Y-80601117D01*
X168798428Y-80376493D01*
X168800757Y-80361791D01*
X168835375Y-80143222D01*
X168835375Y-79907027D01*
X168798428Y-79673756D01*
X168725441Y-79449128D01*
X168635544Y-79272697D01*
X168618218Y-79238692D01*
X168479392Y-79047615D01*
X168312385Y-78880608D01*
X168121308Y-78741782D01*
X167910871Y-78634558D01*
X167686243Y-78561571D01*
X167452972Y-78524625D01*
X167452967Y-78524625D01*
X167216783Y-78524625D01*
X167216778Y-78524625D01*
X166983506Y-78561571D01*
X166758878Y-78634558D01*
X166548441Y-78741782D01*
X166483858Y-78788705D01*
X166357365Y-78880608D01*
X166357363Y-78880610D01*
X166357362Y-78880610D01*
X166190360Y-79047612D01*
X166190360Y-79047613D01*
X166190358Y-79047615D01*
X166150590Y-79102351D01*
X166051532Y-79238691D01*
X165944308Y-79449128D01*
X165871321Y-79673756D01*
X165834375Y-79907027D01*
X165834375Y-80143222D01*
X165871321Y-80376493D01*
X165944308Y-80601121D01*
X165973459Y-80658332D01*
X166051532Y-80811558D01*
X166190358Y-81002635D01*
X166357365Y-81169642D01*
X166392002Y-81194808D01*
X166407565Y-81214990D01*
X166426119Y-81232465D01*
X166428543Y-81242196D01*
X166434667Y-81250138D01*
X166436847Y-81275527D01*
X166443010Y-81300262D01*
X166439787Y-81309760D01*
X166440646Y-81319751D01*
X166428752Y-81342291D01*
X166420565Y-81366428D01*
X166410763Y-81376384D01*
X166408040Y-81381546D01*
X166396367Y-81392121D01*
X166394218Y-81393832D01*
X166357365Y-81420608D01*
X166344714Y-81433258D01*
X166339237Y-81437621D01*
X166313106Y-81448269D01*
X166288344Y-81461791D01*
X166276909Y-81463020D01*
X166274533Y-81463989D01*
X166272106Y-81463536D01*
X166261986Y-81464625D01*
X164574500Y-81464625D01*
X164507461Y-81444940D01*
X164461706Y-81392136D01*
X164450500Y-81340625D01*
X164450500Y-79734513D01*
X164464015Y-79678218D01*
X164494542Y-79618307D01*
X164555220Y-79499219D01*
X164618477Y-79304534D01*
X164650500Y-79102352D01*
X164650500Y-78897648D01*
X164627058Y-78749642D01*
X164618477Y-78695465D01*
X164581816Y-78582635D01*
X164555220Y-78500781D01*
X164555218Y-78500778D01*
X164555218Y-78500776D01*
X164514235Y-78420343D01*
X164462287Y-78318390D01*
X164417713Y-78257038D01*
X164341971Y-78152786D01*
X164197213Y-78008028D01*
X164031613Y-77887715D01*
X164031612Y-77887714D01*
X164031610Y-77887713D01*
X163974653Y-77858691D01*
X163849223Y-77794781D01*
X163654534Y-77731522D01*
X163479995Y-77703878D01*
X163452352Y-77699500D01*
X163247648Y-77699500D01*
X163223329Y-77703351D01*
X163045465Y-77731522D01*
X162850776Y-77794781D01*
X162668386Y-77887715D01*
X162502786Y-78008028D01*
X162358028Y-78152786D01*
X162237715Y-78318386D01*
X162144781Y-78500776D01*
X162081522Y-78695465D01*
X162049500Y-78897648D01*
X162049500Y-79102351D01*
X162081522Y-79304534D01*
X162144781Y-79499223D01*
X162235985Y-79678218D01*
X162249500Y-79734513D01*
X162249500Y-81813389D01*
X162249500Y-81986611D01*
X162255796Y-82026360D01*
X162275819Y-82152786D01*
X162276598Y-82157701D01*
X162330127Y-82322445D01*
X162408768Y-82476788D01*
X162510586Y-82616928D01*
X163175711Y-83282053D01*
X163298197Y-83404539D01*
X163395429Y-83475182D01*
X163438094Y-83530512D01*
X163444073Y-83600126D01*
X163411467Y-83661921D01*
X163350628Y-83696278D01*
X163322543Y-83699500D01*
X163247648Y-83699500D01*
X163224256Y-83703205D01*
X163045465Y-83731522D01*
X162850776Y-83794781D01*
X162668386Y-83887715D01*
X162502786Y-84008028D01*
X162358028Y-84152786D01*
X162237715Y-84318386D01*
X162144781Y-84500776D01*
X162081522Y-84695465D01*
X162058614Y-84840106D01*
X162049500Y-84897648D01*
X162049500Y-85102352D01*
X162053878Y-85129995D01*
X162081522Y-85304534D01*
X162144781Y-85499223D01*
X162179559Y-85567477D01*
X162225700Y-85658034D01*
X162237715Y-85681613D01*
X162358028Y-85847213D01*
X162502786Y-85991971D01*
X162627580Y-86082637D01*
X162668390Y-86112287D01*
X162743929Y-86150776D01*
X162850776Y-86205218D01*
X162850778Y-86205218D01*
X162850781Y-86205220D01*
X162912612Y-86225310D01*
X163045465Y-86268477D01*
X163085431Y-86274807D01*
X163247648Y-86300500D01*
X163247649Y-86300500D01*
X163452351Y-86300500D01*
X163452352Y-86300500D01*
X163654534Y-86268477D01*
X163654537Y-86268476D01*
X163654538Y-86268476D01*
X163829295Y-86211694D01*
X163867613Y-86205625D01*
X166261986Y-86205625D01*
X166284961Y-86212371D01*
X166308781Y-86214794D01*
X166321123Y-86222989D01*
X166329025Y-86225310D01*
X166339237Y-86232629D01*
X166344714Y-86236991D01*
X166357365Y-86249642D01*
X166394218Y-86276417D01*
X166396367Y-86278129D01*
X166414946Y-86304562D01*
X166434667Y-86330138D01*
X166434909Y-86332966D01*
X166436544Y-86335291D01*
X166437882Y-86367573D01*
X166440646Y-86399751D01*
X166439320Y-86402263D01*
X166439438Y-86405101D01*
X166423117Y-86432972D01*
X166408040Y-86461546D01*
X166404678Y-86464458D01*
X166404131Y-86465394D01*
X166402846Y-86466046D01*
X166392005Y-86475440D01*
X166378853Y-86484996D01*
X166357363Y-86500609D01*
X166357362Y-86500610D01*
X166349667Y-86508306D01*
X166288344Y-86541791D01*
X166261986Y-86544625D01*
X163941485Y-86544625D01*
X163768264Y-86544625D01*
X163749178Y-86547648D01*
X163597173Y-86571723D01*
X163432424Y-86625253D01*
X163278086Y-86703893D01*
X163211389Y-86752352D01*
X163137947Y-86805711D01*
X163137945Y-86805713D01*
X163137944Y-86805713D01*
X162410588Y-87533069D01*
X162410588Y-87533070D01*
X162410586Y-87533072D01*
X162368331Y-87591231D01*
X162308768Y-87673211D01*
X162230128Y-87827552D01*
X162176597Y-87992302D01*
X162149500Y-88163389D01*
X162149500Y-90515487D01*
X162135985Y-90571782D01*
X162044781Y-90750776D01*
X161981522Y-90945465D01*
X161949500Y-91147648D01*
X161949500Y-91352351D01*
X161981522Y-91554534D01*
X162044781Y-91749223D01*
X162083521Y-91825253D01*
X162123590Y-91903893D01*
X162137715Y-91931613D01*
X162258028Y-92097213D01*
X162402786Y-92241971D01*
X162507856Y-92318307D01*
X162568390Y-92362287D01*
X162678959Y-92418625D01*
X162750776Y-92455218D01*
X162750778Y-92455218D01*
X162750781Y-92455220D01*
X162855137Y-92489127D01*
X162945465Y-92518477D01*
X163046557Y-92534488D01*
X163147648Y-92550500D01*
X163147649Y-92550500D01*
X163352351Y-92550500D01*
X163352352Y-92550500D01*
X163554534Y-92518477D01*
X163749219Y-92455220D01*
X163931610Y-92362287D01*
X164059827Y-92269133D01*
X164097213Y-92241971D01*
X164097215Y-92241968D01*
X164097219Y-92241966D01*
X164241966Y-92097219D01*
X164241968Y-92097215D01*
X164241971Y-92097213D01*
X164314846Y-91996907D01*
X164362287Y-91931610D01*
X164455220Y-91749219D01*
X164518477Y-91554534D01*
X164550500Y-91352352D01*
X164550500Y-91147648D01*
X164518477Y-90945466D01*
X164455220Y-90750781D01*
X164455218Y-90750778D01*
X164455218Y-90750776D01*
X164364015Y-90571782D01*
X164350500Y-90515487D01*
X164350500Y-88869625D01*
X164370185Y-88802586D01*
X164422989Y-88756831D01*
X164474500Y-88745625D01*
X166261986Y-88745625D01*
X166284961Y-88752371D01*
X166308781Y-88754794D01*
X166321123Y-88762989D01*
X166329025Y-88765310D01*
X166339237Y-88772629D01*
X166344714Y-88776991D01*
X166357365Y-88789642D01*
X166394218Y-88816417D01*
X166396367Y-88818129D01*
X166414946Y-88844562D01*
X166434667Y-88870138D01*
X166434909Y-88872966D01*
X166436544Y-88875291D01*
X166437882Y-88907573D01*
X166440646Y-88939751D01*
X166439320Y-88942263D01*
X166439438Y-88945101D01*
X166423117Y-88972972D01*
X166408040Y-89001546D01*
X166404678Y-89004458D01*
X166404131Y-89005394D01*
X166402846Y-89006046D01*
X166392005Y-89015440D01*
X166391886Y-89015527D01*
X166357363Y-89040609D01*
X166190360Y-89207612D01*
X166190360Y-89207613D01*
X166190358Y-89207615D01*
X166130737Y-89289675D01*
X166051532Y-89398691D01*
X165944308Y-89609128D01*
X165871321Y-89833756D01*
X165834375Y-90067027D01*
X165834375Y-90303222D01*
X165871321Y-90536493D01*
X165944308Y-90761121D01*
X165973459Y-90818332D01*
X166051532Y-90971558D01*
X166190358Y-91162635D01*
X166357365Y-91329642D01*
X166392002Y-91354808D01*
X166434667Y-91410138D01*
X166440646Y-91479751D01*
X166408040Y-91541546D01*
X166392005Y-91555440D01*
X166387425Y-91558768D01*
X166357363Y-91580609D01*
X166190360Y-91747612D01*
X166190360Y-91747613D01*
X166190358Y-91747615D01*
X166133951Y-91825252D01*
X166051532Y-91938691D01*
X165944308Y-92149128D01*
X165871321Y-92373756D01*
X165834375Y-92607027D01*
X165834375Y-92843222D01*
X165871321Y-93076493D01*
X165944308Y-93301121D01*
X165973459Y-93358332D01*
X166051532Y-93511558D01*
X166190358Y-93702635D01*
X166357365Y-93869642D01*
X166392002Y-93894808D01*
X166434667Y-93950138D01*
X166440646Y-94019751D01*
X166408040Y-94081546D01*
X166392005Y-94095440D01*
X166381179Y-94103306D01*
X166357363Y-94120609D01*
X166190360Y-94287612D01*
X166190360Y-94287613D01*
X166190358Y-94287615D01*
X166175055Y-94308678D01*
X166051532Y-94478691D01*
X165944308Y-94689128D01*
X165871321Y-94913756D01*
X165834375Y-95147027D01*
X165834375Y-95383222D01*
X165871321Y-95616493D01*
X165944308Y-95841121D01*
X166051532Y-96051558D01*
X166190358Y-96242635D01*
X166357365Y-96409642D01*
X166392002Y-96434808D01*
X166434667Y-96490138D01*
X166440646Y-96559751D01*
X166408040Y-96621546D01*
X166392005Y-96635440D01*
X166383277Y-96641782D01*
X166357363Y-96660609D01*
X166190360Y-96827612D01*
X166190360Y-96827613D01*
X166190358Y-96827615D01*
X166130737Y-96909675D01*
X166051532Y-97018691D01*
X165944308Y-97229128D01*
X165871321Y-97453756D01*
X165834375Y-97687027D01*
X165834375Y-97923222D01*
X165871321Y-98156493D01*
X165944308Y-98381121D01*
X166006300Y-98502786D01*
X166051532Y-98591558D01*
X166190358Y-98782635D01*
X166357365Y-98949642D01*
X166392002Y-98974808D01*
X166407565Y-98994990D01*
X166426119Y-99012465D01*
X166428543Y-99022196D01*
X166434667Y-99030138D01*
X166436847Y-99055527D01*
X166443010Y-99080262D01*
X166439787Y-99089760D01*
X166440646Y-99099751D01*
X166428752Y-99122291D01*
X166420565Y-99146428D01*
X166410763Y-99156384D01*
X166408040Y-99161546D01*
X166396367Y-99172121D01*
X166394218Y-99173832D01*
X166357365Y-99200608D01*
X166344714Y-99213258D01*
X166339237Y-99217621D01*
X166313106Y-99228269D01*
X166288344Y-99241791D01*
X166276909Y-99243020D01*
X166274533Y-99243989D01*
X166272106Y-99243536D01*
X166261986Y-99244625D01*
X164102329Y-99244625D01*
X164035290Y-99224940D01*
X164014648Y-99208306D01*
X160636819Y-95830477D01*
X160603334Y-95769154D01*
X160600500Y-95742796D01*
X160600500Y-63663389D01*
X160588898Y-63590135D01*
X160573402Y-63492299D01*
X160519873Y-63327555D01*
X160441232Y-63173212D01*
X160339414Y-63033072D01*
X160216928Y-62910586D01*
X155682053Y-58375711D01*
X155541913Y-58273893D01*
X155387570Y-58195252D01*
X155222826Y-58141723D01*
X155222824Y-58141722D01*
X155222823Y-58141722D01*
X155091396Y-58120906D01*
X155051736Y-58114625D01*
X155051735Y-58114625D01*
X136693130Y-58114625D01*
X136626091Y-58094940D01*
X136620245Y-58090943D01*
X136518900Y-58017312D01*
X136518899Y-58017311D01*
X136518897Y-58017310D01*
X136455971Y-57985247D01*
X136322481Y-57917229D01*
X136322478Y-57917228D01*
X136112827Y-57849110D01*
X136003961Y-57831867D01*
X135895097Y-57814625D01*
X135674653Y-57814625D01*
X135602076Y-57826120D01*
X135456922Y-57849110D01*
X135247271Y-57917228D01*
X135247268Y-57917229D01*
X135050849Y-58017312D01*
X134872516Y-58146877D01*
X134872511Y-58146881D01*
X134716631Y-58302761D01*
X134716627Y-58302766D01*
X134587062Y-58481099D01*
X134486979Y-58677518D01*
X134486978Y-58677521D01*
X134418860Y-58887172D01*
X134384375Y-59104903D01*
X117201439Y-59104903D01*
X118919523Y-57386819D01*
X118980846Y-57353334D01*
X119007204Y-57350500D01*
X156062546Y-57350500D01*
X156129585Y-57370185D01*
X156150227Y-57386819D01*
X161398056Y-62634648D01*
X161431541Y-62695971D01*
X161434375Y-62722329D01*
X161434375Y-72551735D01*
X161454945Y-72681613D01*
X161461473Y-72722826D01*
X161513837Y-72883985D01*
X161515003Y-72887572D01*
X161576289Y-73007853D01*
X161593643Y-73041913D01*
X161695461Y-73182053D01*
X164175461Y-75662053D01*
X164297947Y-75784539D01*
X164438087Y-75886357D01*
X164592430Y-75964998D01*
X164757174Y-76018527D01*
X164928264Y-76045625D01*
X164928265Y-76045625D01*
X165101486Y-76045625D01*
X166261986Y-76045625D01*
X166329025Y-76065310D01*
X166349667Y-76081944D01*
X166357365Y-76089642D01*
X166548442Y-76228468D01*
X166637594Y-76273893D01*
X166758878Y-76335691D01*
X166758880Y-76335691D01*
X166758883Y-76335693D01*
X166879287Y-76374814D01*
X166983506Y-76408678D01*
X167216778Y-76445625D01*
X167216783Y-76445625D01*
X167452972Y-76445625D01*
X167686243Y-76408678D01*
X167910867Y-76335693D01*
X168121308Y-76228468D01*
X168312385Y-76089642D01*
X168479392Y-75922635D01*
X168618218Y-75731558D01*
X168725443Y-75521117D01*
X168798428Y-75296493D01*
X168835375Y-75063222D01*
X168835375Y-74827027D01*
X168798428Y-74593756D01*
X168746730Y-74434648D01*
X168725443Y-74369133D01*
X168725441Y-74369130D01*
X168725441Y-74369128D01*
X168668877Y-74258116D01*
X168618218Y-74158692D01*
X168479392Y-73967615D01*
X168312385Y-73800608D01*
X168277747Y-73775442D01*
X168262185Y-73755261D01*
X168243629Y-73737785D01*
X168241204Y-73728053D01*
X168235082Y-73720114D01*
X168232901Y-73694722D01*
X168226739Y-73669987D01*
X168229960Y-73660489D01*
X168229103Y-73650500D01*
X168240996Y-73627958D01*
X168249185Y-73603821D01*
X168258984Y-73593866D01*
X168261708Y-73588705D01*
X168273383Y-73578128D01*
X168275519Y-73576426D01*
X168312385Y-73549642D01*
X168325037Y-73536989D01*
X168330514Y-73532628D01*
X168356645Y-73521979D01*
X168381406Y-73508459D01*
X168392841Y-73507229D01*
X168395218Y-73506261D01*
X168397643Y-73506713D01*
X168407764Y-73505625D01*
X170080485Y-73505625D01*
X170080486Y-73505625D01*
X170251576Y-73478527D01*
X170416320Y-73424998D01*
X170570663Y-73346357D01*
X170710803Y-73244539D01*
X172874289Y-71081053D01*
X172976107Y-70940913D01*
X173054748Y-70786570D01*
X173108277Y-70621826D01*
X173135375Y-70450736D01*
X173135375Y-70277514D01*
X173135375Y-58948264D01*
X173131670Y-58924871D01*
X173108278Y-58777174D01*
X173054748Y-58612430D01*
X173054746Y-58612427D01*
X173054746Y-58612425D01*
X172987834Y-58481103D01*
X172976107Y-58458087D01*
X172976105Y-58458084D01*
X172976104Y-58458082D01*
X172946547Y-58417401D01*
X172874289Y-58317947D01*
X172751803Y-58195461D01*
X161682053Y-47125711D01*
X161541913Y-47023893D01*
X161387570Y-46945252D01*
X161222826Y-46891723D01*
X161222824Y-46891722D01*
X161222823Y-46891722D01*
X161091396Y-46870906D01*
X161051736Y-46864625D01*
X96371486Y-46864625D01*
X96198264Y-46864625D01*
X96112719Y-46878174D01*
X96027173Y-46891723D01*
X95862424Y-46945253D01*
X95708086Y-47023893D01*
X95628131Y-47081984D01*
X95567947Y-47125711D01*
X95567945Y-47125713D01*
X95567944Y-47125713D01*
X91910588Y-50783069D01*
X91910588Y-50783070D01*
X91910586Y-50783072D01*
X91866859Y-50843256D01*
X91808768Y-50923211D01*
X91730128Y-51077552D01*
X91676597Y-51242302D01*
X91649500Y-51413389D01*
X91649500Y-53841744D01*
X91629815Y-53908783D01*
X91625818Y-53914629D01*
X91552187Y-54015974D01*
X91452104Y-54212393D01*
X91452103Y-54212396D01*
X91383985Y-54422047D01*
X91349500Y-54639778D01*
X78285375Y-54639778D01*
X78285375Y-46339625D01*
X78305060Y-46272586D01*
X78357864Y-46226831D01*
X78409375Y-46215625D01*
X174160375Y-46215625D01*
X174227414Y-46235310D01*
G37*
%TD.AperFunction*%
%TD*%
M02*
