M48
; DRILL file {KiCad 9.0.6} date 2025-11-26T21:22:23-0300
; FORMAT={-:-/ absolute / metric / decimal}
; #@! TF.CreationDate,2025-11-26T21:22:23-03:00
; #@! TF.GenerationSoftware,Kicad,Pcbnew,9.0.6
; #@! TF.FileFunction,Plated,1,2,PTH
FMAT,2
METRIC
; #@! TA.AperFunction,Plated,PTH,ViaDrill
T1C0.800
; #@! TA.AperFunction,Plated,PTH,ComponentDrill
T2C0.800
; #@! TA.AperFunction,Plated,PTH,ComponentDrill
T3C0.813
; #@! TA.AperFunction,Plated,PTH,ComponentDrill
T4C0.840
; #@! TA.AperFunction,Plated,PTH,ComponentDrill
T5C0.910
; #@! TA.AperFunction,Plated,PTH,ViaDrill
T6C3.000
%
G90
G05
T1
X92.75Y-54.75
X92.75Y-71.75
X95.25Y-54.75
X95.25Y-74.25
X135.785Y-59.215
X135.785Y-67.715
T2
X87.4Y-113.25
X92.75Y-106.5
X94.15Y-99.5
X94.785Y-77.215
X94.785Y-85.465
X100.1Y-113.25
X105.45Y-106.5
X106.85Y-99.5
X107.485Y-77.215
X107.485Y-85.465
X111.72Y-92.675
X111.72Y-95.215
X111.72Y-100.2
X111.72Y-102.74
X111.83Y-85.44
X111.83Y-87.98
X112.445Y-72.725
X112.445Y-75.265
X119.34Y-92.675
X119.34Y-95.215
X119.34Y-100.2
X119.34Y-102.74
X119.45Y-85.44
X119.45Y-87.98
X120.065Y-72.725
X120.065Y-75.265
X123.4Y-72.0
X123.4Y-83.0
X123.435Y-102.715
X131.75Y-86.65
X131.75Y-99.35
X136.1Y-72.0
X136.1Y-83.0
X136.135Y-102.715
X142.63Y-62.365
X142.63Y-64.905
X142.63Y-67.445
X142.63Y-69.985
X142.63Y-72.525
X142.63Y-75.065
X142.63Y-77.605
X142.63Y-80.145
X142.63Y-82.685
X142.63Y-85.225
X142.63Y-87.765
X142.63Y-90.305
X142.63Y-92.845
X142.63Y-95.385
X142.63Y-97.925
X142.63Y-100.465
X142.63Y-103.005
X142.63Y-105.545
X142.63Y-108.085
X150.55Y-91.25
X150.65Y-79.0
X150.65Y-85.0
X163.25Y-91.25
X163.35Y-79.0
X163.35Y-85.0
X167.335Y-62.245
X167.335Y-64.785
X167.335Y-67.325
X167.335Y-69.865
X167.335Y-72.405
X167.335Y-74.945
X167.335Y-77.485
X167.335Y-80.025
X167.335Y-82.565
X167.335Y-85.105
X167.335Y-87.645
X167.335Y-90.185
X167.335Y-92.725
X167.335Y-95.265
X167.335Y-97.805
X167.335Y-100.345
X167.335Y-102.885
X167.335Y-105.425
X167.335Y-107.965
T3
X105.0Y-114.98
X105.0Y-117.52
X117.5Y-115.0
X117.5Y-117.54
X127.5Y-114.98
X127.5Y-117.52
X137.5Y-114.98
X137.5Y-117.52
T4
X100.862Y-65.763
X103.1Y-65.75
X105.362Y-65.763
X108.18Y-65.75
X110.72Y-65.75
X113.26Y-65.75
X115.8Y-65.75
X118.34Y-65.75
T5
X87.5Y-65.749
X87.5Y-68.289
X87.5Y-70.829
X87.5Y-73.369
X87.5Y-75.909
X87.5Y-78.449
X87.5Y-80.989
X87.5Y-83.529
X87.5Y-86.069
X87.5Y-88.609
X87.5Y-91.149
X87.5Y-93.689
X87.5Y-96.229
X87.5Y-98.769
X87.5Y-101.309
X87.5Y-103.849
T6
X80.75Y-48.75
X80.75Y-116.5
X171.75Y-48.75
X171.75Y-116.5
M30
